<?xml version="1.0"?>
<svg width="418.45123" height="468.63733" xmlns="http://www.w3.org/2000/svg" xmlns:svg="http://www.w3.org/2000/svg">--&gt;
 <g class="layer">
  <!--<title>Layer 1</title>-->
  <path d="m258.54,383.95l-129.94,0l-49.25,0.44l-3.02,0l49.25,-0.44l-112.94,0l0,-0.01l245.89,0l0,0.01z" fill="none" id="divider" stroke="#cccccc"/>
  <path d="m257.4,204.3l0.76,0.66l1.31,-0.15l0.83,1.51l3.06,-1.06l0.85,1l1.96,0.24l0.78,1.61l3.4,-2.21l-0.75,-0.95l-0.87,0.52l-0.75,-0.57l-0.37,-0.86l0.49,-0.41l3.24,-0.12l2.22,-1.41l0.61,0.21l2.19,-1.84l2.46,1.1l2.14,-1.33l0.39,1.14l2.38,-1.07l1.12,1.13l-0.11,-1.12l0,0l4.6,1.57l2.68,1.66l-0.31,1.19l1.11,0.35l0.2,1.25l-0.91,0.02l-3.31,2.44l-0.66,0.96l0.31,0.54l-1.07,-0.4l-2.34,0.89l-1.05,1.48l0.42,0.7l-1.47,1.55l-1.57,-0.52l-6.98,3.68l-0.8,1.19l-0.02,2.32l-1.31,-0.41l-2.33,2.86l0.32,3.46l-3.2,1.05l-0.93,2.44l-0.08,4.33l-1.52,1.17l-0.68,2.24l-0.96,0.52l-0.37,1.98l0,0l-2.08,-0.67l-2.15,-2.28l-3.99,-6.75l-0.19,-1.57l1.47,-2.42l0.65,-2.82l-0.66,-1.92l-2.93,-1.01l-0.3,-3.58l2.46,-2.29l-0.38,-0.99l0.76,-1.97l-0.75,-3.24l0,0l1.95,-0.05l1.43,-1.53l-1.4,-3.09l1,-0.35z" id="alicante">
   <title>Alicante</title>
  </path>
  <path d="m239.72,179.32l0.65,-0.19l0.33,1.25l0.63,-0.29l-0.07,1.49l1.25,-0.76l2.39,1.82l0.74,-0.36l4.52,1.29l-0.49,3.89l-2.29,4.17l-0.34,2.17l3.68,4.78l5.75,-0.59l1.07,2.07l-0.14,4.24l0,0l-0.99,0.35l1.4,3.09l-1.44,1.53l-1.95,0.05l0,0l-2.76,-2.14l-0.12,-1.08l-1.96,-0.65l-2.01,0.63l-2.87,2.38l-0.73,-1.05l-1.09,0.51l-1.4,1.64l-0.14,2.65l-1.07,0.72l-0.34,1.22l0.61,6.07l-3.4,2.54l-2.48,-0.04l-0.69,-0.98l0.15,-1.1l-1.71,-0.61l-1.61,0.43l0.36,0.55l-3.79,2.27l-2.41,0.63l-1.93,-0.94l-1.98,2.64l-3.06,1.41l-1.48,3.45l-2.1,1.85l-0.36,1.53l0,0l-2.51,-0.3l-3.92,-1.96l0,0l3.22,-3.92l0.3,-3.39l-1.49,-1.09l0.05,-3.8l-2.7,-0.63l0.15,-2.99l-0.8,-0.79l-2.46,0.55l-2.74,-1.41l0,0l0.47,-0.55l-0.52,-3.17l1.08,0.46l1.83,-1.29l0.95,-3.35l-1.82,-1.91l-1.07,0.06l-0.91,-3.86l-3.71,-2.28l1.55,-3.34l0.68,-0.02l0.15,-2.17l-1.15,-2.19l3.67,-5.14l-0.59,-2.1l0,0l3.78,-0.87l2.09,0.66l1.23,-0.74l4.2,4.32l0.73,-1.79l0.89,-0.22l1,2.25l3.69,-2.15l3.6,0.57l-1.39,-3.64l2.33,0.28l-0.26,0.54l1.2,1.75l3.15,-0.43l3.6,0.95l0.94,-1.6l7.18,-3.83z" id="albacete">
   <title>Albacete</title>
  </path>
  <path d="m218.16,238.09l1.1,1.08l1.5,-0.46l1.18,1.09l0.44,-0.47l2.94,0.62l-0.77,1.76l0.11,3.67l-0.51,1.05l1.1,3.17l4.04,6.32l1.11,0.82l-0.09,-0.69l2.3,0.34l3.28,2.61l0,0l-1.43,0.81l-3.89,5.01l-1.41,5.9l-1.59,3.13l0.17,1.51l-1.4,0.47l-0.81,1.44l-0.74,0.17l-0.32,2.19l-1.81,1.06l0.03,1.19l-1.4,0.53l-0.46,1.18l-2.16,0.49l-3.1,-3.86l-2.1,-0.79l-2,1.19l-1.7,-0.9l-2.58,0.76l-1.86,3.54l-2.26,1.48l-2.23,0.03l-1.43,-0.94l-0.92,0.44l-2.32,-2.17l-1.57,0.51l-4.69,-0.47l0,0l-0.36,-1.42l3.41,-2.16l-1.22,-2.72l1.15,-0.34l0.28,-1.13l1.4,-0.89l-1.63,-5.2l0.9,0.7l1.58,-0.06l0.6,-2.28l1.48,-1.19l1.1,-3.54l2.03,0.64l0.62,1.38l0.79,-0.41l2.24,0.97l-0.17,-2.8l0.92,-4.2l3.73,-3.28l1.74,-0.44l0.04,-0.71l3,-0.5l-1.01,-4.25l2.32,0.4l-0.23,-2.77l1.43,-3.2l-0.72,-0.5l0.16,-3.35l2.67,-1.56z" id="almeria">
   <title>Almería</title>
  </path>
  <path d="m128.65,110.65l4.14,-1.17l3.87,2.71l1.5,-0.38l0.04,-1.06l0.84,-0.57l1.97,-0.24l0,0l0.27,3.51l2.3,1.28l0.97,2.45l1.24,0.59l0.21,2.85l0.85,1.1l-0.84,0.77l0.39,0.57l1.61,-0.33l0.61,2.38l1.32,1.3l0.35,4.39l3.06,-0.56l0,0l1.91,-0.24l-0.54,-0.92l0,0l2.81,-0.88l0.72,0.33l0,0l-0.04,2.68l-2.48,0.85l-1.46,-1.03l0.01,2.55l-1.2,1.2l0.38,2.79l-0.74,1.45l0.6,0.74l-3.1,0.17l-1.03,3.47l-1.5,0.2l-0.68,-1.2l-0.61,0.11l0.53,1.98l-1.23,1.43l0.26,1.38l-0.56,0.21l0,0l-2.3,0.77l-1.01,-0.51l-0.35,-2.86l-1.93,0.86l-1.32,-0.57l-0.11,1.59l-3.59,2.62l-0.02,1.35l-0.95,0.11l0.05,0.49l-1.8,0.4l-0.16,-1.92l-1.58,0.41l-3.12,2.56l-0.93,0.08l-0.33,-0.96l-3.78,-0.36l0,0l-0.98,-1.93l-0.05,-2.17l0.81,-1.83l-2.66,0.47l-1.26,1.78l-1.84,0.53l-2.43,-0.83l-0.37,-1.22l-0.83,-0.15l-1.33,-1.7l-1.38,-0.08l0,0l1.98,-2.19l-0.56,-2.94l1.75,-1.55l2.25,-0.67l-0.42,1.32l1.45,0.88l0.53,-1.66l1.36,-0.09l1.23,-3.64l-0.38,-0.39l-2.66,1.03l0.26,-1.8l0.47,-0.48l0.04,0.63l1.59,0.08l1.99,-1.65l0.52,-1.13l-0.6,-0.92l5.25,-3.48l-0.14,-0.61l1.76,-1.66l-0.07,-2.2l1.48,-1.37l-0.37,-2.09l0.7,-0.25l0.46,-1.47l-1.93,-2.72l0.86,-2.77z" id="avila">
   <title>Avila</title>
  </path>
  <path d="m342.45,62.54l1.86,-0.7l5.12,1.31l-1.63,2.43l0.41,0.7l0.71,-0.15l0.22,1.72l-1.71,0.65l0.08,-1.32l-1.29,-0.21l1.19,2.05l1.75,0.57l0.96,-0.36l1.03,1.29l0.58,-0.75l1.73,0.29l0.43,-0.73l1.69,-0.13l0.91,0.45l-0.14,1.3l2.18,-0.77l1.05,0.79l0.53,1.54l1.15,-0.54l1.1,0.44l0.26,2.71l-0.92,0.32l0.59,0.38l-0.42,0.63l-1.39,0.02l1.6,2.17l-1.16,1.15l-1.11,-0.32l-0.75,0.99l-0.4,-0.57l-1.28,0.1l0.72,3.01l2.62,0.29l2.42,1.66l0.97,1.76l3.39,-1.17l3.66,0.5l-0.58,2.31l0.59,1.17l0,0l-6.9,2.94l-5.25,3.42l-3.53,1.46l-4.7,6.93l-14.35,3.81l0,0l-0.13,-1.61l-0.6,0.49l-1.22,-0.57l-0.35,-0.96l1.52,0.29l0.52,-1.72l-1.49,0.08l0.21,-0.62l-1.11,-1.38l0.59,-0.79l-1.26,-0.93l-0.84,-0.37l-1.11,0.56l0.53,-0.84l-0.46,-1.14l0.62,-0.25l-0.82,-0.34l0.49,-1.26l-2.71,-1.55l0.38,-0.9l1.22,-0.09l-0.54,-0.76l0.72,-0.55l-1.89,-0.24l0,0l0.42,-1.04l-1.44,-0.53l2.78,-1.35l-2.09,-2.42l1.32,-1.11l-0.67,-0.51l0.43,-2.02l1.66,-0.26l-0.31,0.99l1.34,-0.46l0.8,1.45l1.28,-1.21l0.65,0.18l-0.14,-1.07l1.27,-2.25l-0.34,-0.93l-1.54,0.06l2.58,-2l-0.09,-2.09l0.77,-0.12l0.23,0.62l1.12,-0.7l-0.66,-1.24l-0.01,1.21l-1.52,-0.62l0.25,-0.85l0.31,0.72l1.03,-1.07l-0.21,-0.68l-0.63,0.21l0.08,-0.75l0.52,-1.15l0.94,-0.16l-0.72,-1.84l1.24,-1.68l-0.04,-0.53l-1.76,-0.7l0.73,-1.23l-0.43,-1.69l-0.61,-0.19l5.2,-1.08zm5.74,7.65l-0.68,0.58l-0.15,-0.75l0.83,0.17z" id="barcelona">
   <title>Barcelona</title>
  </path>
  <path d="m142.06,178.04l0.56,1.02l-1.14,3.83l-1.67,0.27l1.62,4.38l1.82,1.78l-4.95,-1.37l-1.97,3.96l1.5,1.44l-0.22,0.64l-1.3,0.56l-2.68,-1.05l1.36,4l2.67,0.84l-0.51,2.1l-2.06,-0.21l-0.88,1.3l-1.42,4.49l-1.75,0.42l0,0l-1.65,0.84l-2.57,-0.47l0.51,1.49l-0.53,0.87l-0.7,-0.33l-0.21,0.75l-2.41,1.55l-0.5,1.24l-1.91,-0.24l-0.34,1.66l-0.74,-0.09l-0.37,1.2l-1.85,1.09l-0.16,0.83l-1.08,0.01l-1.48,1.16l-0.51,1.29l0.77,1.28l-0.49,1.48l1.52,2.55l0.15,2.21l-0.55,0.29l0,1.48l-1.4,1.17l0,0l-1.5,-0.25l-2.36,2.21l-0.75,-0.2l-0.18,-1.56l1.41,-0.93l-0.34,-0.74l0.66,0.48l-0.32,-1.14l-1.02,-0.43l-3.79,0.99l-2.3,2.63l0.54,1.61l-1.37,2.62l-4.96,0.53l-2,1.57l0,0l-0.64,-0.81l-3.14,-0.63l-1.51,-1.13l-0.45,-1.61l-1.43,-0.37l-1.18,0.1l-0.4,1.74l-3.59,-0.38l0.06,-1.24l-1.29,-1.72l-4.16,0.17l-0.36,-0.75l-1.41,-0.31l0.64,-2.27l-1.64,0.05l-2.56,-1.21l0,0l-0.15,-0.48l-2.27,0.62l-0.37,0.75l-1.34,-0.04l-0.58,0.67l-2.01,-4.15l-3.96,-5.6l-1.72,-0.63l1.14,-1.32l-0.06,-0.52l-0.64,0.18l0.21,-1.39l2.18,-4.31l-0.89,-0.56l0.4,-3.36l6.76,-5.5l-0.4,-1.66l3.1,-4.59l-0.91,-2.53l-1.45,-1.09l-2.37,0.64l-1.19,-0.37l0.29,-2.46l-3.28,-1.46l0.29,-2.79l0,0l0.87,0.52l1.59,-2.2l-0.79,-0.37l0.5,-1.19l1.31,-0.9l1.72,0.45l-0.5,0.82l-0.73,-0.15l0.66,1.66l1.14,-0.54l1.07,-2.43l-1.77,-1.02l0.54,-0.89l5.1,2.13l2.49,-0.26l0.15,1.77l1.55,0.91l-0.46,1.81l-1.2,1.44l1.02,2.01l2.66,0.44l0.65,-0.86l0.81,0.09l1.63,0.67l0.18,0.84l1.09,0.13l-0.05,-1.05l4.95,0.75l1.59,-0.94l0.98,3.49l1.98,0.32l0.85,1.32l1.51,0.11l0.36,0.87l3.79,-3.84l0.27,3.01l2.09,-2.21l0.52,1.01l2.79,-1.07l0.72,-1.35l1.7,0.48l1.99,1.94l2.65,-0.69l0.62,-0.69l-0.53,-0.64l0.75,-0.65l-1.13,-1.47l1.92,-1.09l0.69,0.96l0.42,-0.72l1.68,2.02l1.41,0.07l2.05,-3.25l0.22,-3.72l2.83,1.24l3.81,-1.37l0.3,-2l0.71,-0.14l1.13,1.12l2.13,-0.37l0.29,-0.87l0.69,-0.05l0,0l0.36,0l0,0l2.14,1.06l3.55,-1.88l0,0l2.07,-1.37z" id="badajoz">
   <title>Badajoz</title>
  </path>
  <path d="m201.46,14.54l0.41,1.15l1.27,0.81l0.42,1.94l0.06,-1.93l1.18,-0.22l0.73,0.98l3.36,0.62l1.53,1.74l1.47,0.62l0,0l-0.75,0.91l0.57,1.32l-0.56,1.02l-1.88,0.98l0.4,2.04l-0.76,0.43l0.26,2.72l-1.4,0.35l0,0l-3.53,0.58l0.86,2.27l-4.18,-0.29l-2.89,-1.05l-0.93,0.23l-2.42,-2.05l1.14,-1.71l-1.36,-2.75l-0.82,0.22l-0.3,-0.26l-0.32,1.74l-1.47,0.63l-1.12,0.12l-0.92,-0.76l0,0l-0.49,-0.68l-2.05,0.32l-0.9,-1.19l-5.04,2.73l0,0l-0.95,-4.31l3.33,-1.76l0.24,-1l1.63,0.5l1.66,-0.79l0.48,1.07l1.6,-0.75l0.13,-2.18l0,0l1.06,0.43l0.46,-0.89l2.61,1.6l0.2,-0.86l-0.76,-1.12l2.04,-1.67l0.77,0.16l-0.04,-1.13l4.31,0.2l1.66,-1.08zm-16.96,8.33l1.69,-0.04l-0.6,1.07l0,0l0.12,1.17l0,0l-1.01,-0.02l-0.2,-2.18z" id="vizcaya">
   <title>Vizcaya</title>
  </path>
  <path d="m199.05,42.39l0.11,0.32l0,0l2.92,-0.42l2.7,1.24l1.27,-0.25l0.4,0.85l0.95,-0.52l-1.55,2.78l0.96,1.15l1.71,-0.66l0.14,1.57l-3.6,-0.06l-0.75,-1.02l-3.34,0.27l-0.51,-1.37l-2.58,-1.7l1.01,-2.35l0,0l0.16,0.17zm-18.02,-14.26l5.04,-2.73l0.9,1.19l2.05,-0.32l0.49,0.68l0,0l-1.24,1.7l1.47,0.99l-0.74,0.97l0.55,0.29l-0.05,1.56l-1.1,0.33l3.61,0.77l0.6,1.42l1.82,1.28l-1.15,1.26l-2.17,0.4l-1.84,-0.76l0.15,-0.72l-2.45,-0.63l-1.78,3.1l2.37,2.01l-0.51,-0.47l0.97,-1.29l0.92,0.55l1.41,-1.37l0.06,1.18l-1.41,2.35l1.1,0.64l-0.76,1.36l3.02,-0.37l0.27,1.13l0.75,-0.08l1.1,1.53l1.54,-0.18l0.86,0.61l0.2,1.6l1.17,0.7l0,0l-1.78,0.78l-0.93,-0.82l-4.22,-0.06l0.75,2.14l-2.28,1.96l1.92,0.6l-0.7,1.64l1.49,1.78l-0.53,0.84l0.17,2.27l-0.63,-1.89l-0.71,-0.04l-0.09,1.3l0.6,0l0.65,1.21l-1.4,0.17l0.63,4.39l-1.25,1.91l2.92,4.68l3.17,-0.03l0.54,2.63l0,0l0,0l0,0l-1.13,1.19l-0.62,2.66l-1.14,0.29l-0.27,1.45l-2.47,0.24l-1.2,2.84l-1.08,0.78l-0.71,-1.47l-2.74,-2.25l0.26,4.72l-2.38,1.26l-0.17,1.82l-1.07,0.12l-2.02,4.13l-2.15,-0.94l-0.65,0.66l0.27,0.78l0,0l-3.99,0.7l-1.74,1.75l-0.34,2.73l-0.93,-0.38l0.06,-3.22l-1.1,0.5l0.49,1.67l-1.11,0.19l-2.17,-2.9l-2.64,-1.27l0,0l-0.77,-1.47l-0.9,-0.05l0.28,-2.94l-1.54,-1.38l1.09,-1.73l0,0l0.09,-0.88l-1.6,-1.68l0.04,-1.63l1.57,-0.09l1.75,-1.14l-0.02,-1.24l1.37,-1.08l1.36,-0.02l0.03,-1.61l-4.34,1.75l0.56,-1.83l1.34,-1.42l-0.35,-0.75l-1.74,-0.08l-1.25,0.68l-0.71,-2.07l0.78,0.18l0.65,-0.75l-1.99,-1.13l-0.65,0.36l-1.94,-0.62l0.52,-1.72l-1.31,-1.32l-1.27,-7.33l-1.5,0.24l-0.41,-1.66l0.55,-1.62l2.29,0.11l-0.14,-1.59l-1.2,-0.72l0.26,-1.36l-0.79,-0.44l-0.06,-0.64l1.06,-0.44l-0.67,-1.02l0.88,-0.5l-0.9,-3.03l0.81,-0.6l0.3,0.72l3.4,-2.66l1.12,0.76l0.87,-1.15l0,0l1.09,-0.21l0,0l1.42,-0.1l0,0l0.64,0.45l2.09,-0.43l0.51,-1.51l0.95,0.75l1.45,-1l-0.64,-2.84l-0.83,-0.46l-0.5,1.6l-1.08,-0.4l0.55,-0.81l-0.82,-0.37l0.96,0.08l-0.46,-1.13l1.2,0.65l1.08,-0.79l-0.18,-0.91l-1.47,-0.37l-0.12,0.97l-1.3,1.08l0.12,-0.63l-1.41,0.05l-0.55,-0.8l1.39,-3.13l1.11,-0.43l0.57,-1.08l1.28,0.03l0.53,-0.95l-0.47,-0.86l2.76,-0.03l0.03,-0.59l1.57,-0.72l1.65,-2.71l1.18,0.48l0.27,0.83l5.71,0.69zm-19.88,40.32l0.11,1.32l-1.47,-0.48l-0.05,-0.63l1.41,-0.21z" id="burgos">
   <title>Burgos</title>
  </path>
  <path d="m49.95,0.4l0.84,0.68l-1.38,2.74l0,0l0.14,1.03l-0.51,-0.04l0.87,1.38l-1.36,1.41l0.54,1.57l-0.95,0.27l0.13,2.77l-1.09,2.66l-0.83,0.49l-0.48,1.54l-2.08,0.1l0.1,2.61l-1.82,2.11l0.78,0.7l-1.21,3.34l1.37,4.26l-0.8,0.86l1.07,4.87l-2.81,4.27l0,0l-1.42,0.73l-0.79,-0.87l-1.37,0.47l-2.07,-0.79l-1.14,0.66l0.32,0.86l-1.38,-0.53l-0.74,1.06l-1.1,-1.46l-0.32,0.61l-0.41,-0.39l0.23,1.94l-0.68,0.64l-1.16,-0.43l-0.45,1.46l-1.93,0.44l-2.66,-0.7l0.06,0.58l-1.39,0.15l-0.21,1.16l-1.36,-0.58l-2.04,0.95l-0.29,1.22l0,0l-0.62,1.1l-1.75,0.58l-0.65,-0.38l0.29,-0.75l-1.09,-0.08l-0.31,0.82l0.71,0.59l-0.62,0.22l0.04,0.85l-0.95,-0.16l0.43,-0.93l-0.82,-0.45l-0.89,1.59l0.29,0.77l-1.02,0.07l-1.14,0.88l0.23,0.84l-2,1.1l0.41,-1.75l-0.64,-0.7l-1.12,0.02l1.6,-2.72l0.2,-2.27l3.23,-3.65l1.14,0.13l0.15,-1.48l-0.56,-0.51l-0.1,1.1l-0.83,-0.13l-0.73,1.08l-0.64,-0.62l-0.03,0.66l-1.05,-0.16l-0.08,-0.86l-1.4,0.68l0.48,0.73l-1.33,1.34l-1.92,-2.72l1.24,-0.39l0.2,-0.78l-1.36,-1.64l0.74,-1.54l-1.07,-0.22l-0.36,-1.35l-0.52,-0.31l0.1,1.53l-1.37,-1.11l-0.04,0.64l-0.88,0.23l-0.37,1.68l-0.01,-1.24l-0.72,-0.49l1.13,-3.3l-1.18,-2.35l0.84,0.5l0.48,-1.98l2.78,-0.52l0,-1.92l-0.81,1.16l-0.66,-1.76l0.42,0.41l0.78,-1.53l0.51,0.35l0.63,-0.79l1.53,0.49l-0.11,0.43l0.96,-0.15l1.47,-2.09l0.44,0.73l0.5,-0.57l1.48,0.42l-0.56,-1.82l-1.24,-0.54l1.21,-0.82l0.69,0.49l0.68,-0.43l-0.08,-1.2l2,0.08l0.18,-1.09l1.63,1.74l2.23,0.64l3.27,-1.44l2.28,0.35l2.9,-2.83l0.91,0.57l0.28,-0.91l0.49,2.13l1.1,-0.34l0.31,-1.27l-0.54,-0.5l1.5,-0.65l2.95,3.31l-0.35,-2.73l1.04,-1.37l-1.55,-0.22l-0.2,0.54l-2.22,-1.17l1.91,-0.89l1.66,0.23l1.44,-2.21l-1.43,1.48l-1.56,-0.28l-0.46,0.73l-2.29,0.39l0.67,-1.65l-0.4,-0.66l1.18,-0.87l-0.88,-1.34l1.83,0.38l2.3,-2.77l0.84,0.32l2.07,-2.23l0.22,1.2l1.07,0.24l-0.65,-0.66l0.6,-0.38l-0.74,-0.13l0.44,-1.89l1.93,-0.01l1.5,-1.53l0.9,-0.09l0.47,-1.06l1.16,-0.22l-0.11,1.78l0.68,0.65l-0.84,-0.2l0.17,2.1l-0.77,0.09l1.52,0.05l-0.42,-1.58l1.62,0.46l-0.66,-0.56l1.09,-1.15l2.4,-0.83l0.73,-1.6z" id="a-coruna">
   <title>A Coruña</title>
  </path>
  <path d="m91.64,277.24l1.62,-0.46l0.75,0.65l3.02,0.33l1.57,1.07l6.55,0.57l0.45,-2.01l0.95,-0.78l3.94,-0.16l1.51,-2.16l1.52,1.36l0.93,-0.24l0.16,1.23l1.51,0.82l-0.37,-1.41l2.33,-2.05l-1.27,-1.9l0.43,-0.23l2.11,-0.21l0.21,1.3l-1.19,1.27l0.65,1.63l4.2,-3.9l2.06,3.68l2.84,-2.4l0,0l1.44,1.36l-0.45,0.34l0.72,2.07l-1.45,2.54l-1.11,0.57l-3.05,-2.32l-0.98,0.56l-1.2,1.92l1.53,1.69l-1.03,1.95l0.02,1.93l-1.69,1.55l-2.36,0.5l-0.15,1.17l-1.88,2.17l-2.24,-0.73l-0.51,0.35l0.11,1.12l2.58,0.55l0.96,-1.46l1.86,0.07l2.61,4.39l0.83,3.55l1.3,-0.45l0.78,0.99l0,0l-2.1,3.34l-0.56,2.58l-1.48,-0.98l-1.58,0.58l0.24,3.59l-5.33,2.29l-2.58,-2.22l-0.68,0.4l-2.04,-1.15l-0.67,0.38l-3.37,-3.94l-3.85,0.08l-1.6,-3.41l-1.74,-0.99l-5.06,-8.94l1.13,-0.18l1.33,2.82l1.65,-2.26l-2.06,0.6l-0.43,-0.86l0.82,0.11l-0.03,-2.32l-1.06,0.32l-1,-1.43l-2.74,-0.44l-1.56,-3.36l-0.13,-0.86l2.85,-2.19l0,0l-0.13,-2.23l0.64,-1.71z" id="cadiz">
   <title>Cádiz</title>
  </path>
  <path d="m75.25,145.38l0.94,0.92l2.42,0.35l1.14,-1.22l0.87,1.07l0.56,-0.83l2.6,-0.3l0.95,-0.8l-0.13,-1.53l0.74,-0.73l3,-1.03l0.6,-1.06l1.32,-0.04l0.96,-1.71l3.48,-1.76l2.25,1.19l0.33,0.84l0.95,-0.22l-0.41,0.84l1.98,0.97l-1.25,1.59l2.75,0.67l-0.01,0.95l1.47,1.08l1.58,0.48l1.01,-1.97l2.66,-1.06l0.13,2.66l1.71,-0.29l0,0l1.38,0.08l1.33,1.7l0.83,0.15l0.37,1.22l2.43,0.83l1.84,-0.53l1.26,-1.78l2.66,-0.47l-0.81,1.83l0.05,2.17l0.98,1.93l0,0l-1.01,0.63l0.12,4.64l-1.26,4.23l2.44,-0.57l1.3,1.12l-0.87,1.58l0.11,2.54l1.68,0.31l1.48,-1.79l1.2,-0.09l0.26,1.6l-0.47,0.35l1.1,1.43l-0.73,2.85l-1.38,1.82l7.8,8.01l0,0l-0.69,0.05l-0.29,0.87l-2.13,0.37l-1.13,-1.12l-0.71,0.14l-0.3,2l-3.81,1.37l-2.83,-1.24l-0.22,3.72l-2.05,3.25l-1.41,-0.07l-1.68,-2.02l-0.42,0.72l-0.69,-0.96l-1.92,1.09l1.13,1.47l-0.75,0.65l0.53,0.64l-0.62,0.69l-2.65,0.69l-1.99,-1.94l-1.7,-0.48l-0.72,1.35l-2.79,1.07l-0.52,-1.01l-2.09,2.21l-0.27,-3.01l-3.79,3.84l-0.36,-0.87l-1.51,-0.11l-0.85,-1.32l-1.98,-0.32l-0.98,-3.49l-1.59,0.94l-4.95,-0.75l0.05,1.05l-1.09,-0.13l-0.18,-0.84l-1.63,-0.67l-0.81,-0.09l-0.65,0.86l-2.66,-0.44l-1.02,-2.01l1.2,-1.44l0.46,-1.81l-1.55,-0.91l-0.15,-1.77l-2.49,0.26l-5.1,-2.13l-0.54,0.89l1.77,1.02l-1.07,2.43l-1.14,0.54l-0.66,-1.66l0.73,0.15l0.5,-0.82l-1.72,-0.45l-1.31,0.9l-0.5,1.19l0.79,0.37l-1.59,2.2l-0.87,-0.52l0,0l-2.4,-2.45l-0.38,-1.62l0.83,-3.04l-2.64,-1.29l-0.27,-1.52l-1.22,-0.19l-2.12,-2.19l-1.3,-2.94l6.38,0.91l2.53,-1.03l3.07,0.55l4.17,-0.69l1.19,-4.05l-0.32,-1.5l2.56,-2.42l-0.09,-2.11l1.31,-3.52l-2.36,-4.01l-2.21,-0.55l-0.53,-2.41l0.98,-1.96l4.09,-1.41z" id="caceres">
   <title>Cáceres</title>
  </path>
  <path d="m120.76,343.19l-0.7,0.62l-0.96,2.25l-0.58,-0.13l-0.46,-1.06l-0.6,0.8l-0.52,-0.1l-0.95,-1.91l-2.15,-1.33l-0.89,-4.92l0.05,-3.23l-0.95,-2.5l0.58,-1.27l2.61,-0.7l1.73,2.43l1.31,0.94l0.42,2.15l1.83,2.8l0.52,0.13l0,-0.64l1.53,-1.92l0.36,0.81l-0.26,0.74l1.39,2.48l0.79,0.36l1.45,-1.43l0.62,0.17l0.32,-2.76l1.63,-1.6l0.25,-0.99l1.09,2.32l0.83,0.06l-0.12,2.31l-0.48,-0.08l-0.85,1.66l-1.09,0.65l-0.53,-0.26l-1.97,1.78l-2.33,-1.09l-1.56,3.05l-1.35,-0.57l-0.01,-0.02z" id="ceuta">
   <title>Ceuta</title>
  </path>
  <path d="m131.45,248.71l0.47,1.93l-2.02,-2.16l1.55,0.23zm-0.41,-42.27l1.19,0.54l0.11,0.79l3.92,0.35l0.52,2.82l4.69,1.64l0.13,0.76l2.48,1.14l0.88,1.45l0.86,-0.17l1.61,1.04l1.85,2.47l5.65,2.09l0,0l0.96,0.22l-0.04,1.02l0.88,0.55l-0.19,2.13l0.63,0.36l1.06,3.61l-1.74,1.33l0.12,0.83l-1.16,1.05l0.36,0.61l-0.87,0.26l0.28,0.68l-0.68,-0.02l0.72,3.41l-0.85,5.35l2.46,0.69l-0.98,2.28l1.69,0.49l0.59,0.99l-1.95,1.62l0.21,0.66l1.45,0.48l2.33,3.8l1.18,0.23l-0.85,0.75l1.2,0.69l1.45,2.54l0,0l-2.61,-0.06l-2.21,2.37l-1.41,-0.41l-0.99,0.66l-0.58,4.08l-2.22,1.74l0,0l0.15,-0.77l-1.53,-0.43l-0.33,-2.36l-1.86,-0.02l-1.28,1l-0.18,0.94l-1.46,0.62l-1.93,0.08l-0.35,-1.76l-1.22,-0.03l0,0l-1.03,-3.28l-1,-0.65l-0.32,0.88l-1.6,0.26l-1.23,-1.14l0.22,-0.75l-1.07,-1.26l0.3,-0.93l-1.37,-0.12l-0.65,-2.38l-1.32,-0.85l0.53,-3.68l-1.3,0.67l0.62,-2.03l-1.41,-2.09l-1.47,-0.45l-0.76,0.41l-0.58,1.07l0.64,0.74l-0.84,-0.37l-0.32,-1.16l-0.66,0.06l0.67,1.4l-1.29,0.06l-0.82,-0.76l-5.57,3.66l-1.72,-2.33l0.63,-0.41l-0.56,-1.03l0.73,-0.55l0.4,0.77l1.12,-1.1l0.35,0.57l0.6,-0.29l-0.07,-2.9l-1.22,-0.77l0.16,-1.77l-2.15,-1.15l-0.02,-2.86l-2.38,-2.02l-0.07,-1.81l-2.74,-3.47l0,0l1.41,-1.16l0,-1.48l0.55,-0.29l-0.15,-2.21l-1.52,-2.55l0.49,-1.48l-0.76,-1.27l0.5,-1.29l1.49,-1.16l1.08,-0.01l0.15,-0.83l1.86,-1.09l0.36,-1.2l0.74,0.09l0.34,-1.66l1.91,0.24l0.5,-1.24l2.41,-1.54l0.21,-0.76l0.71,0.33l0.53,-0.87l-0.51,-1.49l2.57,0.47l1.56,-0.92z" id="cordoba">
   <title>Córdoba</title>
  </path>
  <path d="m134.3,180.23l1,-3.9l1.38,-2.47l3.43,2.17l-0.12,3.39l0,0l-3.55,1.88l-2.14,-1.07zm7.76,-2.19l2.13,-0.16l-0.01,-1.2l1.55,-0.5l0.21,-1.44l0.56,-0.41l0.36,0.49l0.18,-1.18l1.33,0.9l-0.89,0.66l1.52,1.73l0.55,-1.76l2.04,1.08l4.15,0.72l1.5,-0.69l1.06,-3.22l1.05,0.52l2.54,-0.47l0.36,2.12l-0.91,0.01l-0.26,2.57l-1.53,0.01l-0.92,3.72l0.85,0.01l0.49,0.85l0.95,-0.96l3.1,0.52l0.21,2.13l3.32,1.57l1.98,-1.33l2.16,0.89l1.3,-1.13l4.53,-0.23l1.71,-1.54l0.2,-1.15l1.85,-1.28l3.1,0.22l-0.2,-1.37l0.66,-1.47l3.35,-0.13l0.02,-0.55l1.26,-0.3l2.27,1.79l1.44,-0.27l0.71,0.61l1.31,-0.22l0.78,-0.96l0,0l1.88,3.18l-0.7,1.28l1.46,0.37l1.61,-1.91l0.52,0.12l1.04,3.03l0,0l0.59,2.11l-3.67,5.14l1.16,2.19l-0.15,2.17l-0.68,0.02l-1.55,3.33l3.71,2.28l0.91,3.86l1.07,-0.06l1.83,1.91l-0.95,3.34l-1.83,1.29l-1.08,-0.46l0.52,3.17l-0.47,0.55l0,0l-3.66,3.13l-0.74,-0.67l-1.77,-0.06l-0.92,0.83l-0.28,1.63l-1.92,-2.73l-2,1.54l-4.6,-0.84l-1.43,-0.85l-1.49,0.27l-0.05,1.39l-2.35,1.54l-2.31,-0.33l-0.43,-1.45l-1.25,-0.22l-0.47,2.07l-5.75,-1.04l-1.36,0.49l-0.74,1.47l-1.79,0.24l-7.47,-0.48l-3.05,-0.8l-0.64,0.43l0.24,1.7l0,0l-5.65,-2.09l-1.85,-2.46l-1.61,-1.04l-0.86,0.17l-0.88,-1.45l-2.48,-1.14l-0.13,-0.76l-4.69,-1.64l-0.52,-2.82l-3.92,-0.35l-0.1,-0.79l-1.19,-0.54l0,0l1.75,-0.42l1.43,-4.49l0.88,-1.3l2.06,0.21l0.51,-2.1l-2.67,-0.84l-1.36,-4l2.68,1.05l1.3,-0.56l0.21,-0.64l-1.49,-1.44l1.97,-3.96l4.95,1.36l-1.82,-1.77l-1.62,-4.38l1.67,-0.27l1.14,-3.83l-0.62,-1.08z" id="ciudad-real">
   <title>Ciudad Real</title>
  </path>
  <path d="m261.43,160.94l-1.31,-1.75l0.08,-2.06l1.84,-0.87l0.74,-1.93l2.17,0.1l2.13,-1.03l-0.46,-1.28l1.54,-1.44l1.05,-4.55l1.52,0.92l2.04,-0.6l1.36,-0.84l-0.2,-1.63l0.73,0.02l0.79,-1.4l1.79,-1.01l-1.99,-3.16l2.29,-1.19l-0.89,-1.7l0.26,-3.83l-2.37,-0.1l-0.23,-2.17l1.51,-0.52l0.67,0.84l2.18,-1.27l0.37,-2.54l0.82,-1.22l0.99,-0.17l3.08,2.47l2.47,-0.04l0.81,1.51l0.94,-0.94l3.01,-0.75l0,0l1.7,-0.01l0.3,1.25l1.72,0.55l-0.72,1.17l0.32,1.19l0,0l3.78,1.11l0,0l1.29,0.97l-0.18,1.25l2.37,0.97l0,0l-3.55,6.64l-3.45,4.19l-0.7,1.81l-2.22,1.46l-1.36,3.59l-3,1.86l-1.7,4.81l-2.51,2.36l-3.09,5.3l0,0l-2.21,-0.87l-2.06,-2.28l-1.52,0.06l-0.51,1.58l-1.89,1.81l-2.28,-3.23l-1.43,0.91l-0.34,1.25l-1.31,-0.18l-0.65,-0.31l-0.12,-3.26l-1.07,-0.66l-1.21,1.49l-2.13,-2.65z" id="castellon">
   <title>castellón</title>
  </path>
  <path d="m191.77,149.91l0.12,-0.43l1.45,0.63l0.32,-2.24l2.86,2.05l1.21,-0.66l0.32,-1.06l1.28,-0.2l0.58,-2.36l-0.44,-4l1.1,-3.22l1.78,1.89l0.17,-0.92l0.82,1l0.31,-0.31l-0.72,-0.79l0.87,-1.03l0.38,0.48l2.39,-0.56l2.15,1.04l0.33,-0.98l-1.22,-1.05l0.53,-2.8l0.96,1.43l2.14,-1.28l0.44,0.6l0.98,-0.72l-1.12,-1.49l0.12,-0.86l1.22,-0.21l0.9,1.52l1.4,-0.14l0.71,-2.89l1.87,1.03l1.33,-0.43l0.41,-1.16l0.71,0.11l4.55,2.84l0.63,-1.05l1.18,0.7l2.15,6.64l1.54,1.23l0,0l3.33,3.09l-0.96,0.72l0.3,1.05l0.89,-1.31l4.6,4.76l0.9,-0.51l1.12,0.74l1.09,-0.47l-0.3,2.06l0,0l-0.23,0.58l1.49,1.18l-0.38,0.31l1.33,3.08l3.95,0.85l2.54,-0.6l0,0l0.7,1.53l0,0l-2.02,1.12l0.26,3.36l-0.47,2.02l-1.85,2.85l0.41,1.51l-0.54,0.84l-1.02,0.29l-1.71,-0.76l-1.51,1.38l-1.36,3.11l-1.29,0.5l-0.51,5.25l0.75,0.1l-0.27,0.43l0,0l-7.18,3.83l-0.94,1.6l-3.6,-0.95l-3.15,0.43l-1.2,-1.75l0.26,-0.54l-2.33,-0.28l1.39,3.64l-3.6,-0.57l-3.69,2.15l-1,-2.25l-0.89,0.22l-0.73,1.79l-4.2,-4.32l-1.23,0.74l-2.09,-0.66l-3.78,0.87l0,0l-1.04,-3.03l-0.52,-0.12l-1.61,1.92l-1.46,-0.38l0.71,-1.28l-1.88,-3.18l0,0l0.71,-6.77l-2.75,-3.04l-2.41,-5.44l-1.56,-0.76l0.92,-2.34l0.02,-2.13l-1.41,0.08l-0.58,-3.2l0,0l1.33,0.13l1.76,-1.14l0.13,-0.91l-1.24,-1.17l0.26,-0.82l0.63,0.22z" id="cuenca">
   <title>Cuenca</title>
  </path>
  <path d="m118.62,426.87l0.51,0.39l-0.44,0.9l-0.3,-0.43l0.21,2.05l1.33,1.25l-0.22,1.4l0.65,0.45l-0.74,0.11l-0.02,1.68l-0.83,0.26l-0.51,1.12l-3.57,0.87l-0.33,0.65l-2.9,-0.3l-3.22,-2.05l-1.23,-1.8l0.25,-2.51l3.05,-1.54l0.18,-2.12l2,-0.15l1.08,0.67l2.05,-0.27l1.66,0.71l0.84,-0.26l-0.18,-0.7l0.69,-0.38l-0.01,0zm43.21,-13.87l1.3,0.72l0.29,0.8l0.17,3.43l-1.22,1.74l0.51,1.94l-1.89,3.56l-2.69,1.09l-5.84,1l-3.16,2.87l-4.1,-0.75l-0.97,0.25l0.54,-1.08l1.18,0.25l2.27,-0.39l4.12,-2.35l0.51,-2.73l1.16,-0.94l0.47,-1.74l1.38,-0.95l1.83,-2.75l0.72,-1.95l-0.26,-1l3.68,-1.02zm11.77,-11.72l1.31,0.79l0.12,0.59l-1.29,1.37l0.5,0.95l-1.08,2.35l-1.66,0.98l-5.4,1.1l-1.4,1.65l-0.43,-0.48l-2.06,0.08l-0.24,-0.76l1.49,-1.06l0.36,-2.5l1.73,-1.09l1.36,-0.03l1.39,-1.11l0.77,0.2l0.97,-0.48l1.46,0.41l2.1,-2.96z" id="las-palmas" transform="rotate(-0.128364 141.012 419.426)">
   <title>Las Palmas</title>
  </path>
  <path d="m348.19,70.19l-0.68,0.58l-0.15,-0.75l0.83,0.17zm-1.23,-13.47l-1.01,-0.44l0.63,-1.52l1.15,1.7l-0.77,0.26zm-7.01,-1.71l1.92,0.08l2.07,1.6l1.41,-0.27l0.85,2.98l1.56,1.46l2.11,-0.61l1.37,-2.14l2.4,-0.14l1.52,-0.89l5.43,1.88l1.53,2.21l1.32,0.27l1.38,-1.04l3.08,0.74l-0.6,-1.92l0.59,0.01l0.02,-0.7l1.9,-0.87l2.01,0.27l1.25,-1.7l2.41,0.13l0.88,-1.09l0.63,0.7l2.03,-0.38l1.6,2.03l2.71,-0.4l-0.33,3.11l4.82,1.61l-0.92,0.62l-0.26,2.17l-0.86,0.06l0.33,0.64l-1.11,-0.58l-0.32,0.79l-1.69,-1.35l-1.56,2.23l0.37,3.43l1.62,0.68l1.1,1.75l-0.58,1.85l0.51,2.13l0.73,0.42l-0.95,2.89l-2.22,2.08l-0.91,-0.12l-1.36,2.37l-2.42,1.18l-1.31,1.76l-3.18,0.85l-1.66,1.77l0,0l-0.59,-1.17l0.58,-2.31l-3.66,-0.5l-3.38,1.17l-0.97,-1.76l-2.42,-1.66l-2.62,-0.29l-0.72,-3.01l1.28,-0.1l0.4,0.57l0.75,-0.99l1.11,0.32l1.16,-1.15l-1.6,-2.17l1.39,-0.02l0.42,-0.63l-0.59,-0.38l0.93,-0.32l-0.26,-2.71l-1.1,-0.44l-1.15,0.54l-0.52,-1.54l-1.05,-0.79l-2.18,0.77l0.14,-1.3l-0.91,-0.45l-1.68,0.13l-0.43,0.73l-1.73,-0.29l-0.58,0.75l-1.03,-1.29l-0.96,0.36l-1.75,-0.57l-1.19,-2.04l1.29,0.21l-0.08,1.32l1.71,-0.65l-0.22,-1.72l-0.71,0.15l-0.41,-0.69l1.63,-2.43l-5.12,-1.31l-1.86,0.7l0,0l-0.23,-2.03l0.61,-0.58l-0.77,-0.49l-0.73,0.47l-0.14,-2.27l-2.14,-0.64l-0.03,-2.16l0,0l0.89,0.11z" id="girona">
   <title>Girona</title>
  </path>
  <path d="m207.62,231.59l3.92,1.96l2.51,0.3l0,0l4.11,4.24l0,0l-2.67,1.56l-0.16,3.35l0.72,0.5l-1.43,3.2l0.23,2.77l-2.32,-0.4l1.01,4.25l-3,0.5l-0.04,0.71l-1.74,0.44l-3.73,3.28l-0.92,4.2l0.17,2.8l-2.24,-0.97l-0.79,0.41l-0.62,-1.38l-2.03,-0.64l-1.1,3.54l-1.48,1.19l-0.6,2.28l-1.58,0.06l-0.9,-0.7l1.63,5.2l-1.4,0.89l-0.28,1.13l-1.15,0.34l1.22,2.72l-3.41,2.16l0.36,1.42l0,0l-6.43,0.46l-2.52,1.71l-1.9,-0.12l-1.01,-1.03l-1.2,0.35l-1.49,-1.12l-1.7,-0.08l-2.16,1.04l-1.5,-0.69l0,0l0.28,-2.48l-1.81,-2.04l-1.24,0.18l-1.9,-1.23l-3.62,-0.79l-1.61,-1.88l-2.05,-0.16l-1.98,-2.29l-1.27,0.07l-0.44,-4l-1.25,-2.49l0,0l2.22,-1.73l0.58,-4.08l1,-0.66l1.4,0.41l2.22,-2.36l2.61,0.06l0,0l1.53,0.91l3.37,-0.3l1.71,-4.03l0.28,0.56l4.58,-2.01l3.7,-3.42l3.29,2.05l3.14,-0.92l1.06,-1.98l1.43,-0.19l1.34,0.05l2.47,1.79l1.23,-0.84l2.25,0.6l0.01,-1.2l2.88,-1.83l-0.54,-0.31l-0.07,-2.39l0.73,-0.34l2.92,-6.08l1.91,-1.76l0.87,-0.46l0.73,0.51l1.99,-1.41l-0.02,-2.49l1.69,-0.87z" id="granada">
   <title>Granada</title>
  </path>
  <path d="m182.63,130.57l-0.17,0.58l0,0l-0.34,-0.19l0,0l0.51,-0.39zm4.86,-26.92l4.46,1.25l3.43,-0.78l1.33,-1.42l1.16,0.43l0.06,1.73l1.37,0.73l1.43,0.27l0.45,-0.97l1.36,-0.07l0.22,0.96l1.95,0.48l0.52,1.02l1.22,-0.38l-0.11,0.96l-0.89,0.53l1.35,0.35l-0.55,1.13l0.63,0.49l1.2,-0.94l0.85,1.77l0.87,0.21l0.34,1.44l1.55,0.83l1.95,-1.17l0.98,1.21l1.84,-0.45l0.96,-1.19l1.74,0.54l1.33,-1.39l2.31,1.96l0.15,-3.13l0,0l2.84,-1.04l0.82,1.38l3.99,2l5.68,5.89l0,0l-0.09,2.6l2.39,2.76l0.07,2.04l-0.68,0.85l0.81,2.13l-0.9,2.91l0.59,0.79l-1.63,1.33l-2.43,-1.16l-0.73,2.12l0.29,2.07l-1.72,0.96l-1.77,2.6l0,0l-1.54,-1.23l-2.15,-6.65l-1.17,-0.69l-0.63,1.04l-4.55,-2.84l-0.71,-0.11l-0.41,1.16l-1.33,0.43l-1.86,-1.03l-0.71,2.9l-1.4,0.14l-0.89,-1.52l-1.22,0.2l-0.12,0.87l1.12,1.49l-0.98,0.72l-0.44,-0.6l-2.14,1.28l-0.96,-1.43l-0.53,2.8l1.23,1.04l-0.33,0.98l-2.15,-1.04l-2.39,0.56l-0.38,-0.48l-0.86,1.02l0.71,0.8l-0.3,0.3l-0.82,-0.99l-0.17,0.91l-1.78,-1.89l-1.1,3.23l0.44,4l-0.58,2.36l-1.28,0.2l-0.33,1.06l-1.21,0.66l-2.85,-2.05l-0.32,2.24l-1.45,-0.63l-0.12,0.43l0,0l-1.28,-5.11l-1.95,2.05l-0.69,-0.55l2,-6.31l-0.78,-1.37l-1.31,-0.12l-0.06,-2.91l-1.51,-1.17l-1.45,0.26l0.42,-1.37l-1.44,-1.04l-0.22,-1.13l0.62,-1.16l-0.66,0.71l-1.67,-2.26l-0.36,0.91l-1.92,-0.79l1.02,-1.65l-0.52,-0.29l0.23,-0.92l-0.69,-0.95l-1.37,-0.18l1.05,-1.52l0.1,-1.54l0.99,-0.47l-0.59,-1.3l0.48,0.01l0.81,-3.21l0.72,-0.51l-1.34,-1.72l0.38,-1.65l-1.91,-0.43l-1.59,-2.88l0,0l2.24,-0.74l0.7,-1.3l1.28,0.07l-0.22,-1.91l2.25,0.31l2,-0.9l0.5,0.71l1.41,-1.94z" id="guadalajara">
   <title>Guadalajara</title>
  </path>
  <path d="m71.65,265.13l1.03,1.97l-2.63,-1.61l-7.39,0.12l-3.03,1.17l-0.92,-0.21l-0.92,-2.78l0.37,-0.91l-0.63,-1.44l0.05,-3.06l-0.68,-0.69l0.53,-0.4l-0.56,-2.61l-1.81,-2.64l0.58,-1.89l1.85,-2.31l0.68,-3.64l2.98,-2.2l1.25,-2.05l1.08,-3.32l-0.43,-0.98l1.85,-0.91l0.89,0.41l1.62,-0.46l-0.23,-0.96l0.91,-0.56l1.59,1.15l1.37,-0.31l0.44,-3.09l1.09,-1.97l-0.52,-0.53l1.15,-1.63l0,0l2.55,1.21l1.64,-0.05l-0.64,2.27l1.41,0.32l0.35,0.75l4.17,-0.17l1.29,1.72l-0.05,1.24l3.59,0.38l0.4,-1.74l1.18,-0.1l1.43,0.37l0.45,1.61l1.51,1.13l3.13,0.63l0.65,0.81l0,0l0.34,1.23l0.75,-0.42l0.61,0.6l-1.2,1.63l1.29,1.77l-0.37,1.13l-1.65,-0.85l-0.85,0.72l-0.2,1.99l-0.93,-0.12l0.01,-0.78l-1.81,-0.07l-4.27,1.78l-0.72,-0.25l-0.88,2.26l-1.04,0.61l0.25,1.36l4.08,0.19l0.08,2.2l2.63,4.58l-0.18,0.63l-1.34,0.25l-0.18,1.4l0.49,0.39l-1.18,1.09l1.58,1.48l-0.82,2.34l0.73,2.63l-0.72,1.2l0.53,0.59l-1.35,1.86l0.99,3.38l-0.76,1.97l1.47,1.37l0,0l-0.68,1.67l0.13,2.23l0,0l-1.48,-0.5l-1.54,-3.66l-2.23,-2.72l-10.89,-6.58l-2.4,-2.68l-0.91,0.06z" id="huelva">
   <title>Huelva</title>
  </path>
  <path d="m258.26,44.44l0.01,-0.74l0.84,0.07l0.79,-1.13l-0.28,-2.54l1.17,-0.93l-0.02,-1.31l1.1,-0.88l1.71,0.1l0,0l-0.01,1.12l1.88,0.67l1.99,1.88l0.04,1.2l0.96,-0.18l0.03,1.06l1.18,-0.42l0.75,-1.49l1.85,1.3l1.61,-0.17l2.44,-1.97l3.79,2.51l0.91,-0.45l1.65,3.21l1.15,0.09l0.22,1l1.44,0.41l5.86,-2.15l2.55,0.84l1.09,1.79l2.01,-2.1l1.89,1.4l4.76,-0.15l0.61,-0.49l1.93,0.61l0,0l1.48,2.9l1.82,0.41l-0.55,3.17l-0.86,0.4l0.55,0.83l-1.5,0.73l1.7,4.26l-0.7,0.79l1.48,0.62l-0.95,0.57l0.74,0.6l-1.9,5.47l0.35,1.1l-1.91,5.65l0.17,1.01l-2.93,2.61l1.4,0.78l-0.45,1.43l0.44,0.5l-0.83,0.88l-0.7,-0.14l-0.46,1.39l-1.81,0.77l-0.42,1.47l-2.18,0.32l-0.1,1.06l-0.33,-0.34l-1.73,2.43l0.91,2.02l-0.25,1.32l2.42,-0.12l0.56,2.45l-1.5,2.08l-1.72,0.3l0.41,1.32l-0.62,1.77l0,0l-2.76,-0.83l-0.8,1.02l-1.17,0.37l-0.5,-0.5l-2.19,2.31l-2.56,-0.42l-1.04,-1.49l0.49,2l-1.27,-0.51l-0.71,-0.68l-0.99,-4.42l-1.59,-2.03l0.01,-2.24l-1.52,-0.5l-1.23,1.17l-2.04,-2.06l-1.53,-0.56l-0.37,-2.06l-3.53,-1.79l-0.92,0.1l0.57,-1.31l-0.49,-3.09l-1.18,-1.42l-1.48,-0.47l0.26,-0.67l-1.08,-0.55l-0.85,-1.85l-3.69,0l-3.28,-1.9l2.46,-3.82l0.31,1.7l0.98,-0.53l0.47,-3.62l-0.36,-4.45l0.93,-1.41l-0.23,-2.98l-1.27,-0.89l0.17,1.9l-1.25,3.35l-1.96,-0.71l-0.38,1.69l-0.88,-0.61l2.26,-5.33l0.89,-0.44l-2.77,-1.72l0.85,-1.04l-0.46,-2l-1.25,0.16l1.13,-1.41l-0.08,-0.83l-0.59,0.19l-0.48,-0.72l0.9,-1.17l-0.7,-2.3l1.06,-0.25l0.4,-1.08l-1.3,-0.52l0.66,-1.75z" id="huesca">
   <title>Huesca</title>
  </path>
  <path d="m201.15,214.12l2.74,1.41l2.46,-0.55l0.8,0.79l-0.15,2.99l2.7,0.63l-0.05,3.8l1.49,1.09l-0.3,3.39l-3.22,3.92l0,0l-1.69,0.87l0.02,2.49l-1.99,1.41l-0.73,-0.51l-0.87,0.46l-1.91,1.76l-2.92,6.08l-0.73,0.34l0.07,2.39l0.54,0.31l-2.88,1.83l-0.01,1.2l-2.25,-0.6l-1.23,0.84l-2.47,-1.79l-1.34,-0.05l-1.43,0.19l-1.06,1.98l-3.14,0.92l-3.29,-2.05l-3.7,3.42l-4.58,2.01l-0.28,-0.56l-1.71,4.03l-3.37,0.3l-1.53,-0.91l0,0l-1.45,-2.54l-1.2,-0.69l0.84,-0.75l-1.17,-0.23l-2.33,-3.8l-1.45,-0.48l-0.21,-0.66l1.95,-1.62l-0.58,-0.98l-1.69,-0.5l0.98,-2.27l-2.46,-0.69l0.85,-5.35l-0.72,-3.42l0.69,0.03l-0.28,-0.68l0.87,-0.26l-0.36,-0.61l1.17,-1.05l-0.12,-0.83l1.74,-1.33l-1.06,-3.61l-0.63,-0.35l0.2,-2.14l-0.88,-0.54l0.04,-1.02l-0.96,-0.22l0,0l-0.24,-1.7l0.64,-0.43l3.06,0.8l7.47,0.48l1.79,-0.24l0.74,-1.47l1.37,-0.48l5.74,1.04l0.47,-2.06l1.25,0.22l0.43,1.45l2.31,0.33l2.34,-1.54l0.05,-1.39l1.49,-0.27l1.43,0.85l4.6,0.84l2,-1.54l1.91,2.73l0.28,-1.63l0.92,-0.83l1.77,0.06l0.75,0.67l3.66,-3.13z" id="jaen">
   <title>Jaén</title>
  </path>
  <path d="m307.83,39.57l4.41,1.41l2.09,1.51l1.05,-0.65l0.73,0.8l2.86,-0.07l2.85,3.32l1.82,-0.85l0.67,0.57l3.26,-0.24l-0.11,0.85l1.08,0.55l1.61,3.64l-0.45,0.67l0.53,0.68l-0.95,1.29l0.92,-0.29l0.78,1.32l-1.54,1.12l0.67,0.35l0.28,1.55l3.15,0.19l0.26,-1.05l0.6,0.36l0.52,-0.73l1.84,-0.05l0.4,-1.47l1.02,0.6l0.7,-0.63l0.14,0.52l0,0l0.03,2.16l2.14,0.64l0.14,2.27l0.73,-0.47l0.77,0.49l-0.61,0.58l0.23,2.03l0,0l-5.29,1.02l0.61,0.19l0.43,1.69l-0.73,1.23l1.76,0.7l0.04,0.53l-1.24,1.68l0.72,1.84l-0.94,0.17l-0.52,1.15l-0.07,0.75l0.63,-0.21l0.22,0.68l-1.03,1.07l-0.31,-0.72l-0.25,0.85l1.52,0.62l0.01,-1.21l0.66,1.24l-1.12,0.7l-0.23,-0.62l-0.77,0.12l0.09,2.09l-2.58,2l1.54,-0.06l0.34,0.93l-1.27,2.25l0.14,1.07l-0.64,-0.17l-1.28,1.21l-0.79,-1.45l-1.34,0.46l0.31,-0.99l-1.66,0.26l-0.43,2.02l0.67,0.51l-1.32,1.11l2.09,2.42l-2.78,1.35l1.44,0.53l-0.42,1.04l0,0l0.33,0.69l-5.63,-0.47l-0.28,0.86l-1.41,0.58l0.5,1.89l-2.11,0.86l-2.22,-1.39l-0.07,0.86l1.16,0.82l-1.48,2.04l-1.39,0.72l-0.53,1.5l-3.1,0.71l-0.57,-0.97l-0.77,1.35l-1.79,-0.2l-0.3,0.65l-3.79,1.09l-0.96,-0.1l-1.3,-1.35l-0.9,1.49l-0.67,0.02l-1.29,-1.84l-0.81,0.58l-0.05,1.81l-1.46,-0.11l0,0l-1.14,-2.07l0.77,-0.84l-1.65,-1.81l0.46,-0.54l0,0l0.63,-1.77l-0.41,-1.31l1.71,-0.3l1.51,-2.08l-0.56,-2.46l-2.42,0.12l0.26,-1.32l-0.91,-2.02l1.73,-2.43l0.33,0.34l0.1,-1.06l2.18,-0.32l0.42,-1.47l1.82,-0.78l0.46,-1.39l0.7,0.14l0.84,-0.88l-0.44,-0.5l0.45,-1.43l-1.4,-0.78l2.93,-2.61l-0.17,-1.01l1.91,-5.65l-0.35,-1.1l1.9,-5.47l-0.74,-0.59l0.95,-0.57l-1.47,-0.62l0.7,-0.79l-1.71,-4.26l1.44,-0.74l-0.55,-0.83l0.86,-0.41l0.55,-3.17l-1.81,-0.41l-1.48,-2.9l0,0l0.67,-0.75l-0.57,-1.69l-0.74,-0.21l0.89,-0.83l-0.72,-0.35l0.81,-0.95l-0.39,-1.29l1.71,-0.95z" id="lleida">
   <title>Llida</title>
  </path>
  <path d="m137.36,26.14l-0.32,2.3l2.61,2.15l0.01,0.79l0.68,-0.04l0.22,1.48l0,0l-1.77,1.44l-0.44,2.35l-1.73,2.91l-1.09,0.13l0.16,3.01l-1.24,1.7l1.98,1.52l-0.88,1.61l-0.45,4.53l0.84,0.96l-0.37,3.58l-0.73,0.6l0.58,0.48l0.05,1.58l-2.13,0.5l-0.36,1.51l1.28,-0.36l-0.17,1.48l-0.78,0.92l-0.88,-0.02l0,0l-1.11,-0.33l-0.5,1.64l-1.75,-2.24l-2.17,1.97l-1.65,-0.38l-0.54,1.39l0.81,0.41l-0.42,0.64l-0.74,0.15l-0.65,-0.79l-0.63,1.27l-1.65,-1.07l-0.82,0.15l0.36,7.42l0,0l-1.39,0.44l0,0l-1.82,-0.89l-1.23,-1.84l0,0l-0.69,-0.09l-0.29,1.47l-1.04,0.53l-0.06,-1.09l-1.4,-0.17l0.45,-0.97l-1.47,-1.53l-0.6,0.16l0.31,0.74l-2.04,0.28l-0.82,-0.93l-2.3,1.04l-1.61,-1.87l-0.43,0.64l-1.12,-0.05l-0.16,0.75l-2.31,-1.4l-4.03,-0.34l-1.6,0.73l-2.5,-1.24l-0.58,-1.18l-3.54,0.19l-2.14,0.82l-0.87,-0.88l-2.68,0.01l-0.78,-0.58l-2,0.33l-2.47,-1.83l0,0l1.33,-1.86l0.22,-2.5l-3.36,-1.93l0.89,-0.87l-0.25,-2.65l-1.14,0.09l-2.21,-1.32l-0.86,0.12l-0.58,1.02l-3.01,-0.62l0,0l0.25,-1.92l1.07,-1.23l-0.4,-2.02l1.31,-0.42l-1.25,-2.16l1.05,-1.2l1.17,-0.06l0.41,-1.25l0.73,0.59l2.09,-1.93l0.83,-1.51l-0.95,-2.1l1.15,-0.34l0.58,0.47l-1.02,-1.81l0.73,-0.03l0,0l2.07,1.34l1.04,-1.44l0.97,-0.2l6.17,0.09l1.74,-0.81l-0.02,-1.02l-1.21,-0.15l-0.13,-1.01l1.61,0.18l0.43,-1.23l0.51,0.01l-0.08,-0.91l1.17,-0.89l1,1.18l1.27,-0.21l1.79,1.15l0.4,-1.58l1.09,-0.05l1.24,1.09l1.22,-0.4l0.46,-1.89l1.89,0.87l1.41,-0.42l0.53,1.94l1.29,1.08l3.39,1.26l1.26,-0.36l1.06,-2.98l1.08,-0.58l3.78,1.41l2.34,0.06l0.47,-1.4l2.7,0.23l0.65,-1.89l2.67,0.72l1.9,-0.26l2.22,-1.32l1.41,0.56l0.79,-3.34l2.42,0.35l1.01,-1.65l1.58,-1.02l1.2,0.3l1.03,2.04zm-15.53,38.35l0.57,-0.62l0.82,0.2l-0.05,0.71l0,0l-0.99,0.87l-0.35,-1.16z" id="leon">
   <title>León</title>
  </path>
  <path d="m196.5,74.24l-0.54,-2.63l-3.16,0.03l-2.92,-4.68l1.25,-1.91l-0.63,-4.39l1.4,-0.17l-0.65,-1.21l-0.6,0l0.09,-1.3l0.71,0.04l0.63,1.89l-0.17,-2.27l0.53,-0.84l-1.5,-1.78l0.71,-1.64l-1.92,-0.6l2.28,-1.95l-0.74,-2.14l4.22,0.06l0.94,0.82l1.77,-0.78l0,0l0.5,1.23l0.68,-0.24l-0.64,1.36l0.48,1.11l1.45,-1.12l0.43,-1.7l2.55,1.18l-0.76,3.22l0.91,-0.37l0.86,1.76l1.3,-0.84l0.26,1.27l0.9,-0.88l1.16,0.42l0.61,-1.49l-0.15,1.24l2.89,0.03l0,0l2.29,1.57l0.43,-0.69l1.06,0.44l0.29,-0.41l2.2,2.14l3.22,-0.16l-0.13,0.83l1.12,1.27l-0.33,0.91l2.89,-0.69l0.97,1.23l1.4,0.28l0.12,1.08l1.34,0.49l-0.06,1.49l0.73,-0.24l1.5,1.49l2.29,0.34l1.35,0.91l-0.6,0.8l0.66,0.88l-1.24,0.75l-0.61,-0.67l-1.29,0.5l-1.22,-0.66l-2.18,2.83l-0.27,2.28l1.67,0.89l0,0l-0.29,1.71l0,0l-1.8,1.41l-2.05,0.53l-1.42,-1.39l-0.25,0.56l-2.26,-0.76l-0.43,-1.54l0.5,-0.3l-1.66,-2.64l1.07,-0.58l-0.01,-0.67l-2.5,-0.31l-1.87,0.66l-0.38,-1.77l-1.54,-0.59l-3.26,0.36l-1.41,1.27l-0.93,-0.34l0,1.88l-1.05,0.72l-0.95,2.27l-5.1,-0.51l-0.35,-0.98l1.58,-2.88l-0.99,-0.92l-1.63,0.66l-0.65,2.97l-2.18,1.12l-0.92,-0.55z" id="la-rioja">
   <title>La Rioja</title>
  </path>
  <path d="m51.53,2.02l0.26,1.39l0.71,0.09l-0.24,1.67l0.61,0.4l0.26,-1.77l1.79,-1.07l0.38,0.71l0.76,-0.55l0.97,0.68l-0.6,0.14l0.22,0.44l3.48,1.32l1.93,3.37l1.5,0.67l-0.65,1.51l0.91,-1.21l6.01,0.52l-0.34,3.48l0,0l-1.54,2l-2.15,-0.14l-0.28,1.62l1.68,0.82l-0.1,1.78l0.9,1.1l1.27,-0.05l-0.06,2.57l1.27,1.29l0.32,-0.4l1.18,0.78l-0.3,1.57l0.72,1.32l2.21,-0.89l0.72,-1.07l1.24,1.64l-1.53,2.18l-1.36,0.75l-0.69,-0.56l-0.86,1.06l0.05,1.12l-0.53,-0.28l-0.47,0.92l1.07,1.21l0.3,-1.28l1.29,1.3l1.18,0.05l1.1,1.3l-0.18,1.24l0.54,0.55l0,0l-0.73,0.03l1.02,1.82l-0.58,-0.47l-1.15,0.34l0.95,2.1l-0.83,1.51l-2.09,1.93l-0.73,-0.59l-0.41,1.25l-1.17,0.06l-1.05,1.2l1.25,2.16l-1.31,0.42l0.4,2.02l-1.07,1.23l-0.25,1.92l0,0l-0.7,2.06l-1.59,1.08l-1.56,4.42l-0.87,-1.38l0.33,-1.16l-2.67,-1.75l-1.93,0.34l-0.9,-0.59l-3.13,1.94l-1.22,0.18l-1.04,-0.85l-1.28,0.85l-2.96,-2.82l-2.32,-0.56l1.25,-0.58l-0.5,-0.57l-1.08,0.57l-2.32,-1.28l-1.16,0.11l0.36,-0.54l-0.69,-0.15l1.04,-1.04l-1.25,-1.18l0,0l1.17,-2.12l0,-2l0.96,-1.19l-3.59,-3.03l0.68,-2.53l-1.33,-0.38l0,0l2.81,-4.27l-1.07,-4.87l0.8,-0.86l-1.37,-4.26l1.21,-3.34l-0.77,-0.69l1.82,-2.11l-0.1,-2.61l2.08,-0.1l0.49,-1.54l0.83,-0.49l1.09,-2.66l-0.13,-2.77l0.95,-0.27l-0.54,-1.57l1.36,-1.41l-0.87,-1.38l0.51,0.04l-0.14,-1.03l0,0l0.55,0l0.12,-0.83l1.47,-1.05z" id="lugo">
   <title>Lugo</title>
  </path>
  <path d="m154.72,129.08l0.54,0.92l-1.91,0.24l0,0l0.07,-0.78l1.3,-0.38zm22.57,-19.77l1.59,2.88l1.91,0.43l-0.38,1.66l1.34,1.72l-0.72,0.51l-0.81,3.21l-0.48,-0.01l0.59,1.3l-0.99,0.47l-0.09,1.54l-1.05,1.52l1.37,0.18l0.69,0.95l-0.23,0.92l0.52,0.29l-1.02,1.66l1.92,0.79l0.36,-0.91l1.67,2.26l0.66,-0.71l-0.62,1.16l0.22,1.13l1.45,1.04l-0.42,1.37l1.45,-0.26l1.51,1.17l0.06,2.91l1.31,0.13l0.78,1.37l-2,6.31l0.69,0.55l1.95,-2.05l1.28,5.11l0,0l-0.63,-0.21l-0.26,0.81l1.24,1.17l-0.13,0.91l-1.75,1.15l-1.33,-0.14l0,0l-0.42,-1.03l-0.92,1.28l-2.2,0.46l-1.77,-1.36l-1.31,0.26l-0.53,1.59l-3.46,-0.51l-0.39,1.09l-2.14,0.3l-1.49,0.99l0.1,0.9l-3.37,1.02l-1.81,2.23l-2.02,-0.8l-0.19,-0.96l1.13,-0.54l0.22,0.48l0.22,-0.66l1.16,0.01l0.68,-0.79l-0.16,0.7l0.45,-0.04l-0.18,-0.83l1.08,0.18l-0.62,-0.57l3.86,-3.01l0.43,-2.11l-1.85,-1.38l-0.74,0.43l-0.91,-0.61l-0.75,0.61l-1.87,-1.79l-0.89,0.65l-1.26,-1.19l-1.68,-0.51l-0.56,0.59l-0.11,-0.93l-1.21,0.1l-0.96,-1.58l-1.46,-0.63l-1.01,0.92l-1.21,-0.13l-0.01,-0.77l-1.45,-1.31l-0.38,1.12l-1.29,-0.19l-0.78,1.62l-1.54,0.32l-0.82,-0.46l-0.27,-2.93l-0.74,-0.35l-0.09,1.17l-1.58,1.2l-0.05,0.87l-3.02,1.53l-1.32,-0.71l0,0l0.56,-0.21l-0.26,-1.38l1.23,-1.42l-0.53,-1.98l0.62,-0.11l0.68,1.2l1.5,-0.19l1.03,-3.47l3.1,-0.17l-0.6,-0.74l0.74,-1.46l-0.37,-2.79l1.19,-1.19l-0.01,-2.56l1.46,1.03l2.49,-0.85l0.03,-2.68l0,0l2.77,-4.19l2.77,0.39l1.29,-5.78l1.31,-1.61l3.48,-1.35l1.31,-2.17l1.92,-1.32l1.94,-2.54l2.16,-0.69zm5.34,21.26l-0.17,0.58l0,0l-0.34,-0.19l0,0l0.51,-0.39z" id="madrid">
   <title>Madrid</title>
  </path>
  <path d="m143.12,263.57l1.22,0.03l0.35,1.76l1.93,-0.08l1.47,-0.62l0.19,-0.94l1.28,-1l1.86,0.02l0.33,2.36l1.53,0.44l-0.15,0.78l0,0l1.24,2.48l0.45,4.01l1.26,-0.08l1.99,2.29l2.05,0.17l1.61,1.88l3.62,0.79l1.9,1.23l1.24,-0.18l1.81,2.05l-0.28,2.48l0,0l-2.06,-0.62l-3.45,1.04l-3.59,-0.85l-1.09,0.9l-2.13,0.36l-6.63,-0.29l-3.55,4.92l-2.85,1.16l-1.09,2.17l-3.08,0.89l-3.69,-0.94l-2.3,0.28l-2.19,1.55l-2.31,0.32l-2.96,1.4l-2.28,3.91l0,0l-0.78,-0.99l-1.3,0.46l-0.83,-3.55l-2.61,-4.39l-1.86,-0.07l-0.96,1.46l-2.58,-0.55l-0.11,-1.11l0.51,-0.35l2.24,0.73l1.88,-2.17l0.15,-1.17l2.36,-0.5l1.69,-1.55l-0.02,-1.93l1.03,-1.95l-1.53,-1.69l1.2,-1.92l0.98,-0.56l3.05,2.32l1.11,-0.57l1.45,-2.54l-0.72,-2.07l0.45,-0.34l-1.44,-1.36l0,0l0.6,-0.91l2.14,-0.11l4.44,-3.22l0.15,-0.92l-1.21,-0.72l0.09,-0.69l1.06,-0.24l0.23,0.99l0.68,-0.08l0.66,-1.55l0.86,-0.08l0.97,1.81l2.63,-1.69l-0.76,-2.01l2.45,-0.29z" id="malaga">
   <title>Málaga</title>
  </path>
  <path d="m182.03,338.16l1.53,0.74l-0.48,2.58l2.03,1.72l1.18,2.3l1.11,0.89l1.84,0.2l0.35,0.92l-0.09,0.63l-0.35,-0.97l-0.86,0.28l-0.69,-0.83l-1.57,0.8l0.49,1.23l-0.81,0.29l0.06,1.86l1.35,2.04l1.29,0.41l-0.58,1.14l-2.38,1.32l-2.78,0.52l-2.15,-2.76l-3.39,-2.61l0.2,-1.8l-1.05,-2.7l2.66,-7.57l2.47,-1.67l0.62,1.04z" id="melilla">
   <title>Melilla</title>
  </path>
  <path d="m214.05,233.85l0.36,-1.53l2.09,-1.85l1.48,-3.45l3.06,-1.42l1.99,-2.63l1.93,0.94l2.41,-0.63l3.78,-2.27l-0.35,-0.55l1.6,-0.43l1.72,0.6l-0.15,1.1l0.69,0.98l2.47,0.04l3.41,-2.54l-0.61,-6.07l0.34,-1.22l1.07,-0.73l0.14,-2.64l1.4,-1.64l1.09,-0.51l0.73,1.05l2.87,-2.38l2.01,-0.63l1.96,0.65l0.13,1.08l2.76,2.13l0,0l0.75,3.24l-0.76,1.97l0.38,0.99l-2.46,2.29l0.3,3.58l2.93,1.01l0.66,1.88l-0.65,2.83l-1.47,2.42l0.19,1.57l3.99,6.75l2.15,2.28l2.08,0.67l0,0l0.43,2.21l-0.65,-1.75l-2.77,4.49l1.67,2.3l2.39,0.98l-1.03,-5.96l0.5,0.16l1.34,5.95l-0.5,0.92l-3.19,1.23l-1.74,-0.13l-1.26,0.93l-1.28,-0.19l-0.71,-0.98l-1.02,0.45l-1.75,-0.43l-1.61,1.35l0.5,0.58l-1.72,-0.32l-0.2,-0.77l-1.26,-0.5l-0.96,-0.05l-0.34,0.74l-2.11,-0.2l-4.13,2.95l-0.67,2.36l-1.1,-0.27l-3.44,2.19l0,0l-3.28,-2.61l-2.29,-0.34l0.09,0.7l-1.11,-0.82l-4.04,-6.32l-1.1,-3.17l0.52,-1.05l-0.11,-3.68l0.77,-1.75l-2.94,-0.62l-0.43,0.47l-1.19,-1.09l-1.5,0.46l-1.09,-1.08l0,0l-4.16,-4.27z" id="murcia">
   <title>Murcia</title>
  </path>
  <path d="m235.28,20.71l0.76,0.14l0.52,2.29l1.02,0.08l0.33,-1.61l0.89,-0.23l2.97,1.16l0.76,-0.3l0.9,0.84l0.05,2.71l-0.99,2.53l-1.8,1.77l0.99,1.69l2.69,0.76l0.27,-2.79l2.29,-0.99l-1.18,2.05l1.38,1.05l1.58,-0.3l2.06,1.07l0.11,0.76l0.8,-0.65l1.33,1.06l1.97,0.29l1.93,1.56l1.15,-0.45l3.03,0.54l1.75,-0.66l0.74,2l0,0l-1.71,-0.1l-1.1,0.88l0.02,1.31l-1.17,0.93l0.28,2.54l-0.79,1.13l-0.84,-0.07l-0.01,0.74l0,0l0,0l0,0l-0.68,-0.05l-1.41,1.68l-1.81,0.15l-0.77,2.4l-3.05,-0.22l-0.16,1.54l-0.68,0.11l0.67,0.35l-1.34,0.88l-0.03,1.19l-0.72,0.31l-1.18,-0.61l-0.72,1.41l0.47,1.68l-2.11,2.42l-0.56,1.89l0.94,0.95l-2.14,2.65l-0.57,3.28l0.79,1.33l-0.22,2.2l1.43,2.19l1.28,0.03l0.18,1.21l-3.25,5.1l-4.53,0.21l-2.94,-2.12l-1.87,0.35l-1.59,-1.6l-2.05,0.03l-0.41,-0.53l0,0l-1.67,-0.89l0.27,-2.28l2.18,-2.83l1.22,0.66l1.29,-0.5l0.61,0.67l1.24,-0.75l-0.66,-0.88l0.6,-0.8l-1.35,-0.91l-2.29,-0.34l-1.5,-1.49l-0.73,0.24l0.06,-1.49l-1.34,-0.49l-0.12,-1.08l-1.4,-0.28l-0.97,-1.23l-2.89,0.69l0.33,-0.91l-1.12,-1.27l0.13,-0.83l-3.22,0.16l-2.2,-2.14l-0.29,0.41l-1.06,-0.44l-0.43,0.69l-2.29,-1.57l0,0l-0.05,-0.93l0.92,-0.21l-0.14,-3.41l-0.75,-0.34l-0.98,1.66l-0.28,-0.84l-0.87,0.09l-0.29,-1.3l0.52,0.18l2.07,-2.1l1.21,0.5l-0.17,0.68l2.86,-0.86l-1.08,-2.87l0.21,-0.64l1.67,-0.37l-0.57,-1.53l1.49,-2.45l-0.56,-2.16l0,0l1.24,-2.27l0.9,0.62l1.58,-0.18l1.05,-1.38l1.75,-0.36l0.48,-3.52l3.7,-2.94l-0.56,-0.61l0.13,-3.06l1.05,0.68l0.44,-0.99l0.22,0.76l2.01,-1.45l0.36,-1.68l1.66,-0.39l0,0l2.43,-0.59z" id="navarra">
   <title>Navarra</title>
  </path>
  <path d="m106.71,5.91l0.93,1.36l0.88,0l-0.31,0.63l1,1.19l1.28,0.74l0.57,-0.3l0.18,1.37l1.44,0.13l0.78,-0.75l3.85,0.6l2.61,-0.44l1.7,1.01l1.7,-0.22l2.57,2.62l2.84,-0.48l2.66,1.02l3.37,-0.08l8.36,2.6l4.34,0.33l0,0l-0.81,1.59l0.47,3.25l-0.74,0.4l-0.23,-0.81l-1.57,-0.52l-0.78,1.38l-3.04,0.43l-0.23,2.98l-3.15,0.24l0,0l-1,-2.05l-1.19,-0.3l-1.57,1.02l-1.01,1.65l-2.42,-0.35l-0.79,3.34l-1.41,-0.56l-2.22,1.32l-1.9,0.26l-2.67,-0.72l-0.65,1.89l-2.7,-0.23l-0.47,1.4l-2.34,-0.06l-3.78,-1.41l-1.07,0.58l-1.06,2.98l-1.26,0.36l-3.39,-1.26l-1.29,-1.08l-0.53,-1.94l-1.41,0.42l-1.89,-0.87l-0.46,1.89l-1.3,0.37l-1.28,-1.12l-1.09,0.05l-0.4,1.58l-1.79,-1.15l-1.26,0.21l-1,-1.18l-1.16,0.89l0.08,0.91l-0.51,-0.01l-0.43,1.23l-1.6,-0.18l0.13,1.01l1.21,0.15l0.02,1.02l-1.74,0.81l-6.17,-0.08l-0.97,0.2l-1.04,1.44l-2.07,-1.33l0,0l-0.54,-0.55l0.18,-1.24l-1.09,-1.3l-1.18,-0.05l-1.29,-1.3l-0.3,1.28l-1.07,-1.21l0.47,-0.92l0.53,0.28l-0.05,-1.12l0.86,-1.06l0.69,0.56l1.36,-0.74l1.53,-2.18l-1.24,-1.63l-0.72,1.07l-2.21,0.89l-0.72,-1.31l0.3,-1.57l-1.18,-0.78l-0.32,0.41l-1.27,-1.29l0.06,-2.57l-1.27,0.05l-0.9,-1.1l0.1,-1.78l-1.68,-0.82l0.28,-1.61l2.15,0.14l1.54,-2l0,0l0.63,-2.26l0.76,-0.08l-0.74,-1.19l1.71,-0.02l0.85,-0.73l4.14,0.87l1.13,-0.61l2.97,0.41l1.58,-0.67l0.89,0.9l1.88,0.33l1.98,-0.14l0.05,-0.9l1.24,0.76l2.29,0.07l3.07,-1.15l0.34,-0.8l1.81,1.43l1.07,-0.28l1.06,0.63l2.99,-1.38l0.73,0.66l1.03,-0.22l1.36,-1.11l0.07,-0.87l1.51,-0.3l0.76,-1.27z" id="asturias">
   <title>Asturias</title>
  </path>
  <path d="m42.55,51.27l1.25,1.18l-1.05,1.04l0.69,0.15l-0.35,0.54l1.16,-0.11l2.32,1.29l1.08,-0.57l0.5,0.57l-1.25,0.58l2.32,0.56l2.97,2.83l1.28,-0.86l1.04,0.85l1.22,-0.18l3.13,-1.94l0.9,0.59l1.93,-0.34l2.67,1.75l-0.34,1.16l0.87,1.39l1.56,-4.42l1.59,-1.08l0.7,-2.06l0,0l3.01,0.62l0.58,-1.02l0.86,-0.11l2.21,1.32l1.15,-0.09l0.25,2.65l-0.89,0.87l3.36,1.93l-0.22,2.5l-1.32,1.87l0,0l-0.58,0.61l0.49,0.95l-1.73,-0.52l-1.33,0.58l-0.44,1.02l-1.3,0.71l-0.39,1.77l-1.03,0.34l-0.41,1.54l-0.93,0.39l0.64,0.89l1.16,-0.1l0.42,1.15l-0.69,2.23l0,0l-0.7,0.92l-1.9,0.07l-1.56,-1.55l-1.81,0.27l-0.35,1.57l0.49,0.94l-0.71,1.6l-3.64,1.54l-1.55,-0.42l-1.9,1.86l-0.76,-2.37l-1.53,-0.17l-0.57,1.12l-2.78,0.53l0.79,-2.16l-2.09,0.02l-1.44,-1.08l-4.43,1.08l-0.85,1.49l-0.59,-0.6l0.23,-2.66l-0.67,-0.11l-0.45,2.02l-2.04,0.35l-0.81,1.66l-3.59,0.82l-1.04,-0.38l-0.14,-2.4l-0.94,0.12l-0.52,-1.62l1.66,-2.86l2.36,-1.39l0.05,-1.27l-1.05,-1.44l-1.95,0.71l-0.53,-3.67l0,0l1.18,-1.03l-0.96,-1.24l0.87,-0.53l0.07,-0.91l-2.19,0.43l-0.97,-0.79l0.09,-2.57l-1.93,-1.24l0.31,-1.49l-1.59,-4.41l1.95,-0.11l3.96,-3.4l0.83,0.97l1.76,-0.37l2.24,0.62l0.74,-1.24l1.89,-0.25z" id="ourense">
   <title>Ourense</title>
  </path>
  <path d="m160.82,68.26l0.43,1.5l-1.47,-0.48l-0.05,-0.63l1.09,-0.39zm-0.39,-26.2l-0.61,-0.13l0.06,-1.03l0.55,1.16zm1.33,1.39l1.3,-2.7l0.12,2.6l0,0l-1.42,0.1zm-21.21,-10.62l3.03,0.18l0.98,-0.8l1.46,0.68l1.15,-1.17l1.39,0.36l0.86,-0.83l1.52,0.99l1.56,2.62l3.34,0.74l0.6,4.34l0.6,0.24l1.69,-0.99l0.48,0.93l-1.66,1.5l1.01,0.88l1.58,-0.08l0.53,1.24l0,0l-0.87,1.15l-1.12,-0.76l-3.4,2.66l-0.3,-0.71l-0.81,0.6l0.9,3.03l-0.88,0.5l0.67,1.02l-1.06,0.44l0.06,0.64l0.79,0.44l-0.26,1.36l1.2,0.72l0.14,1.6l-2.29,-0.11l-0.55,1.62l0.41,1.66l1.5,-0.24l1.27,7.33l1.31,1.32l-0.51,1.72l1.94,0.62l0.65,-0.36l1.99,1.13l-0.65,0.75l-0.78,-0.18l0.71,2.07l1.25,-0.68l1.74,0.08l0.35,0.75l-1.34,1.43l-0.56,1.83l4.34,-1.75l-0.03,1.61l-1.36,0.02l-1.37,1.08l0.02,1.24l-1.74,1.14l-1.57,0.09l-0.04,1.63l1.6,1.68l-0.09,0.88l0,0l-1.8,-0.25l-0.73,-1.35l-2.82,0.32l-0.64,-0.59l-2.5,2.07l-2.27,-0.98l-1.92,1.15l-1.44,-0.5l0.43,-2l0.8,-0.01l-0.37,-0.93l-1.19,0.81l-1.14,-0.32l-0.52,0.76l-3.18,-3.61l-3.67,3.39l-2.45,-4.67l-1.81,0.69l-0.66,-0.77l-1.05,0.98l-0.66,-1.53l1.21,-2.46l0.91,-0.45l-0.42,-1.36l1.4,-1.13l-0.72,-2.96l-3.05,-0.15l0.76,-5.58l0,0l0.88,0.02l0.78,-0.92l0.17,-1.48l-1.28,0.36l0.36,-1.51l2.13,-0.5l-0.05,-1.57l-0.58,-0.48l0.74,-0.6l0.37,-3.58l-0.84,-0.96l0.45,-4.53l0.88,-1.61l-1.98,-1.52l1.24,-1.69l-0.16,-3.01l1.09,-0.13l1.73,-2.91l0.44,-2.35l1.75,-1.48z" id="palencia">
   <title>Palencia</title>
  </path>
  <path d="m329.5,204.01l0.8,2.25l0.81,0.2l0.63,1.49l1.16,0.67l1.2,-0.72l0.45,1.12l-0.43,0.51l-3.67,-1.36l-2.04,1.73l-0.17,-3.08l1.49,-0.76l-0.23,-2.05zm3.46,-12.88l0.78,1.02l1.42,0.08l-0.51,1.13l1.02,1.39l-1.14,0.45l-0.07,1.05l-1.47,0.24l-0.15,1.47l-1.6,1.29l-1.71,0.36l-0.47,2.9l-0.64,-0.49l-0.43,0.56l-0.82,-1.67l-0.76,0.58l-1.47,-0.9l-0.7,0.93l-0.77,-0.6l-0.34,-1.29l0.7,-1.41l-0.65,-0.76l0.44,-0.64l2.41,0.06l-0.71,-0.76l0.18,-1.4l2.11,-1.79l0.54,0.44l0.37,-0.66l0.88,0.07l0.23,-0.57l0.49,0.44l0.71,-0.89l1.08,0.16l1.05,-0.79zm51.55,-33.43l-0.36,0.78l-3.74,1.66l0.73,1.75l3.1,-1.29l-0.9,2.07l-1.66,0.18l0.57,2.19l3.52,1.96l2.34,-1.23l0.55,-1.17l2.61,1.78l0.89,-0.13l-0.29,1.05l0.83,0.24l-0.68,0.4l-0.61,2.86l-1.21,0.2l-0.38,1.41l0.59,0.57l-0.77,0.1l-2.52,3.05l-0.66,3.31l-1.31,2.15l-3.51,1.97l-1.37,1.71l-0.72,0.12l-1.09,-1.78l-0.85,-0.21l0.16,-0.83l-1.05,-1.06l-1.34,0.44l-0.98,-0.53l-2.91,0.12l-1.4,-1.74l0.15,-1.41l-0.76,-1.32l0.84,-1.37l-2.35,-1.96l-0.85,-0.21l-1.65,1.34l-1.57,0.28l-0.53,2.68l-0.97,-0.65l-0.53,0.31l-0.51,-2.78l-1.13,0.48l-0.19,-0.63l-0.77,0.73l-0.03,-0.53l-0.75,0.09l0.27,-0.48l-0.78,-0.83l0.49,-1.81l3.07,-1.66l1.98,-1.96l1.78,-0.6l2.67,-3.11l0.68,0.15l0.14,-0.79l2.42,-1.78l2.05,-0.24l3.28,-2.31l1.08,0.42l1.68,-1.12l2.48,0.22l1.31,-1.11l1.42,-0.14zm26.63,-5.13l0.57,0.24l0.14,1.62l0.64,-0.51l0.07,1.23l0.28,-1.65l0.57,-0.02l0.56,0.3l-0.37,1.14l0.7,0.41l0.24,-0.53l0.87,1.52l1.54,0.02l-0.47,1.31l0.8,0.5l0.92,2.82l-0.19,1.97l-0.72,0.82l-2.26,-0.56l-6.69,-4.24l-5.13,0.33l0.23,-2.8l-1.07,-0.25l-0.13,-0.61l0.97,-1.46l3.46,-0.45l1.36,0.47l1.48,-0.6l0.81,0.6l0.67,-0.34l0.15,-1.28z" id="baleares">
   <title>Islas Baleares</title>
  </path>
  <path d="m18.12,47.17l0.29,-1.22l2.04,-0.95l1.36,0.58l0.21,-1.16l1.39,-0.15l-0.06,-0.58l2.66,0.71l1.93,-0.44l0.45,-1.46l1.16,0.43l0.68,-0.64l-0.23,-1.94l0.41,0.39l0.32,-0.61l1.11,1.46l0.74,-1.06l1.38,0.53l-0.32,-0.86l1.14,-0.66l2.07,0.79l1.37,-0.47l0.79,0.87l1.42,-0.73l0,0l1.33,0.38l-0.68,2.53l3.6,3.03l-0.96,1.19l0,2l-1.17,2.12l0,0l-1.88,0.25l-0.74,1.24l-2.24,-0.62l-1.76,0.38l-0.83,-0.97l-3.95,3.39l-1.95,0.12l1.59,4.41l-0.31,1.49l1.93,1.24l-0.08,2.57l0.97,0.8l2.19,-0.44l-0.07,0.91l-0.87,0.54l0.95,1.24l-1.18,1.03l0,0l-3.77,2.16l-0.29,0.74l-5.77,0.18l-0.8,1.04l-2.76,0.26l-0.81,1.87l-2.52,1.51l-0.37,1.35l-3.65,2.57l-0.77,-9.95l1.47,-0.64l1.16,0.53l-0.18,-1.11l-0.91,-0.6l0.81,0.06l0.28,-1.4l4.94,-4.09l1.2,0.09l-0.56,-2.81l-0.12,1.14l-0.78,0.59l0.31,0.59l-1.17,0.75l-1.29,-0.28l-1.85,1.66l-0.67,-0.64l-1.81,0.47l0.49,-2.43l1.25,1.26l-0.63,-2.55l2.06,0.32l1.37,-2.18l2.12,-1.67l-0.77,0.18l-0.43,-0.66l-2.4,2.04l-1.26,-0.55l-0.74,0.72l-1.31,-1.28l-0.01,-1.69l-0.95,-0.31l-0.49,0.58l-0.49,-0.6l0.22,-0.67l0.91,0.21l1.13,-1.09l0.48,1.2l-0.39,1.04l1.46,-0.22l-0.31,-1.35l0.78,-0.65l-0.29,-1.01l-0.44,0.22l0,-2.32l1.04,-0.2l2.08,-4.04z" id="pontevedra">
   <title>Pontevedra</title>
  </path>
  <path d="m184.71,25.06l-0.21,-2.18l1.69,-0.04l-0.6,1.07l0,0l0.12,1.17l0,0l-1,-0.02zm-8.83,-12.97l0.01,0.56l1.39,-0.07l-0.21,0.83l0.82,-0.57l0.28,0.98l2.57,0.64l-0.31,0.94l-0.78,-0.14l-0.33,-0.09l-0.44,-0.26l0.78,2.4l0.54,-1.3l0.69,0.51l3.05,-0.43l0.11,1.27l0.41,-0.85l2.57,0.56l0.33,0.92l1.81,0.91l0,0l-0.12,2.18l-1.6,0.75l-0.48,-1.07l-1.66,0.79l-1.63,-0.5l-0.24,1l-3.33,1.76l0.95,4.31l0,0l-5.7,-0.68l-0.27,-0.83l-1.18,-0.48l-1.65,2.71l-1.57,0.72l-0.03,0.59l-2.76,0.03l0.47,0.86l-0.53,0.95l-1.28,-0.03l-0.57,1.08l-1.11,0.43l-1.39,3.13l0.51,0.8l1.33,-0.12l-0.12,0.63l1.3,-1.08l0.12,-0.97l1.47,0.38l0.18,0.91l-1.07,0.79l-1.2,-0.64l0.46,1.13l-0.96,-0.08l0.83,0.37l-0.55,0.81l1.08,0.4l0.51,-1.6l0.83,0.46l0.64,2.85l-1.45,1l-0.95,-0.75l-0.51,1.51l-2.08,0.43l-0.64,-0.45l0,0l-0.12,-2.6l-1.3,2.7l0,0l-1.09,0.21l0,0l-0.53,-1.24l-1.58,0.08l-1.01,-0.88l1.66,-1.5l-0.48,-0.93l-1.69,1l-0.6,-0.24l-0.6,-4.33l-3.34,-0.74l-1.56,-2.62l-1.52,-0.99l-0.86,0.83l-1.39,-0.36l-1.15,1.17l-1.46,-0.68l-0.98,0.8l-3.03,-0.18l0,0l-0.21,-1.48l-0.68,0.04l-0.01,-0.79l-2.61,-2.15l0.32,-2.3l0,0l3.15,-0.23l0.23,-2.98l3.04,-0.43l0.78,-1.38l1.57,0.52l0.23,0.82l0.74,-0.4l-0.47,-3.25l0.81,-1.59l0,0l4.02,0.13l1.04,-0.69l0.62,0.68l3.26,-0.14l5.34,-2.19l0.32,0.49l0.44,-0.62l1.15,0.12l0.02,0.67l1.19,-1.73l4.95,-0.88l-0.11,0.66l0.76,0.36l-1.76,0.81l-0.28,0.66l0.77,0.16l-0.75,0.77l0.45,0.37l1.05,-0.82l-0.33,-0.46l0.6,-0.69l1.05,0.73l-0.31,-1.03l0.73,-0.73l3.34,-0.94l0.84,-0.88zm-15.43,29.2l-0.38,1.02l-0.18,-1.41l0.56,0.39z" id="cantabria">
   <title>Cantabria</title>
  </path>
  <path d="m87.07,104.06l4.98,0.94l5.62,3.28l2.22,-1.25l1.63,0.84l-0.4,1.83l1.31,-0.78l0.8,1.4l1.23,-1.55l-0.25,-1.62l0.72,-0.83l4.07,0.92l3.32,-1.21l0.88,1.27l1.24,0.49l0.7,-0.6l2.45,1.55l0.03,1.36l0.23,-1.33l2.12,-0.3l0.23,1.63l1.33,0.19l0.86,0.96l0.95,-0.35l0.28,-2.28l0,0l0.01,-0.56l1.41,-0.06l0.74,1.53l1.19,-0.32l1.68,1.44l0,0l-0.86,2.77l1.93,2.72l-0.46,1.47l-0.7,0.25l0.37,2.09l-1.48,1.37l0.07,2.2l-1.76,1.66l0.14,0.61l-5.25,3.48l0.6,0.92l-0.52,1.13l-1.99,1.65l-1.59,-0.08l-0.04,-0.63l-0.47,0.48l-0.26,1.8l2.66,-1.03l0.38,0.39l-1.23,3.64l-1.36,0.09l-0.53,1.66l-1.45,-0.88l0.42,-1.32l-2.25,0.67l-1.75,1.55l0.56,2.94l-1.98,2.19l0,0l-1.71,0.29l-0.13,-2.66l-2.66,1.06l-1.01,1.97l-1.58,-0.48l-1.47,-1.08l0.01,-0.95l-2.75,-0.67l1.25,-1.59l-1.98,-0.97l0.41,-0.84l-0.95,0.22l-0.33,-0.84l-2.25,-1.19l-3.48,1.76l-0.96,1.71l-1.32,0.04l-0.6,1.06l-3,1.03l-0.74,0.73l0.13,1.53l-0.95,0.8l-2.6,0.3l-0.56,0.83l-0.87,-1.07l-1.14,1.22l-2.42,-0.35l-0.94,-0.92l0,0l0.11,-1.16l2.06,-1.16l0.41,-1.44l-1.65,-1.74l-0.46,-1.76l1.67,-2.4l-0.17,-1.57l-1.37,-0.63l1.58,-3.84l-1.14,-3.69l0.15,-3.65l0.8,-0.22l-0.28,-1.36l-1.22,-0.81l-0.31,-1.92l-2.22,-3.22l3.76,-0.29l1.68,-2.74l-0.42,-1.25l1.8,-1.53l1.86,-3.05l2.37,0.35l1.49,-1.49l0.4,0.47l0.9,-0.38l0.02,-0.84z" id="salamanca">
   <title>Salamanca</title>
  </path>
  <path d="m96.26,237.14l1.99,-1.58l4.96,-0.53l1.37,-2.62l-0.54,-1.61l2.3,-2.62l3.79,-0.99l1.03,0.42l0.32,1.15l-0.66,-0.48l0.34,0.74l-1.41,0.93l0.18,1.56l0.75,0.2l2.36,-2.22l1.49,0.25l0,0l2.74,3.47l0.07,1.81l2.38,2.02l0.02,2.86l2.15,1.15l-0.16,1.77l1.22,0.78l0.07,2.9l-0.6,0.29l-0.35,-0.57l-1.12,1.1l-0.4,-0.77l-0.73,0.55l0.56,1.03l-0.63,0.41l1.72,2.33l5.57,-3.66l0.82,0.76l1.29,-0.06l-0.67,-1.4l0.66,-0.06l0.32,1.16l0.84,0.37l-0.64,-0.74l0.58,-1.07l0.76,-0.4l1.47,0.45l1.41,2.09l-0.62,2.03l1.3,-0.67l-0.53,3.68l1.32,0.85l0.65,2.38l1.37,0.12l-0.3,0.93l1.07,1.26l-0.22,0.75l1.23,1.14l1.6,-0.26l0.32,-0.88l1,0.65l1.03,3.29l0,0l-2.46,0.22l0.76,2.01l-2.63,1.7l-0.97,-1.81l-0.86,0.08l-0.66,1.55l-0.68,0.08l-0.23,-0.99l-1.06,0.24l-0.09,0.69l1.21,0.72l-0.15,0.93l-4.44,3.22l-2.14,0.11l-0.6,0.91l0,0l-2.84,2.4l-2.06,-3.68l-4.2,3.91l-0.65,-1.63l1.2,-1.27l-0.21,-1.3l-2.11,0.21l-0.43,0.23l1.27,1.9l-2.33,2.05l0.37,1.41l-1.51,-0.82l-0.16,-1.23l-0.93,0.25l-1.52,-1.36l-1.51,2.16l-3.94,0.17l-0.96,0.76l-0.45,2.01l-6.55,-0.57l-1.57,-1.07l-3.02,-0.33l-0.75,-0.65l-1.62,0.46l0,0l-1.47,-1.37l0.76,-1.97l-0.99,-3.37l1.35,-1.86l-0.53,-0.59l0.72,-1.2l-0.73,-2.63l0.82,-2.34l-1.58,-1.47l1.18,-1.09l-0.49,-0.39l0.18,-1.4l1.34,-0.25l0.18,-0.63l-2.63,-4.58l-0.08,-2.2l-4.08,-0.18l-0.25,-1.36l1.04,-0.61l0.88,-2.26l0.72,0.25l4.27,-1.78l1.81,0.07l-0.01,0.78l0.93,0.12l0.2,-1.99l0.86,-0.72l1.65,0.85l0.37,-1.13l-1.29,-1.77l1.2,-1.63l-0.6,-0.6l-0.75,0.43l-0.34,-1.24zm35.66,13.49l-2.02,-2.16l1.55,0.24l0.47,1.92z" id="sevilla">
   <title>Sevilla</title>
  </path>
  <path d="m163.76,92.26l2.64,1.28l2.17,2.9l1.11,-0.19l-0.49,-1.67l1.1,-0.5l-0.06,3.22l0.93,0.38l0.34,-2.73l1.74,-1.75l3.99,-0.7l0,0l0.1,1.05l1.12,0.93l0.68,0.34l0.66,-0.66l1.04,0.83l0.34,1.65l2.54,0.63l-0.62,2.69l4.4,3.69l0,0l-1.46,1.89l-0.5,-0.71l-2,0.9l-2.25,-0.31l0.22,1.91l-1.28,-0.07l-0.7,1.31l-2.23,0.74l0,0l-2.27,0.64l-1.94,2.55l-1.91,1.32l-1.31,2.17l-3.48,1.35l-1.31,1.61l-1.28,5.78l-2.77,-0.39l-2.77,4.19l0,0l-0.72,-0.33l-2.81,0.88l0,0l-1.29,0.38l-0.08,0.78l0,0l-3.06,0.56l-0.35,-4.39l-1.32,-1.3l-0.61,-2.38l-1.61,0.33l-0.39,-0.57l0.84,-0.77l-0.85,-1.1l-0.21,-2.85l-1.24,-0.59l-0.97,-2.45l-2.3,-1.28l-0.27,-3.51l0,0l1.27,-1.48l1.62,0.61l-0.71,-2.05l2.37,-2.19l-0.71,-1.85l1.15,0.75l0.94,-0.77l1.87,1.03l-1.12,-2.09l0.62,-0.8l-0.94,-1.74l1.43,-0.15l1.51,-1.09l1.66,0.16l0.07,-0.57l2.84,-0.46l0.27,0.44l6.01,-1.81l2.01,-0.87l0.59,-2.75z" id="segovia">
   <title>Segovia</title>
  </path>
  <path d="m196.5,74.24l0.92,0.55l2.18,-1.12l0.65,-2.97l1.63,-0.66l0.99,0.92l-1.58,2.88l0.35,0.98l5.1,0.51l0.95,-2.27l1.05,-0.72l0,-1.88l0.93,0.34l1.41,-1.27l3.26,-0.36l1.54,0.59l0.38,1.77l1.87,-0.66l2.5,0.31l0.01,0.67l-1.07,0.58l1.66,2.64l-0.5,0.3l0.43,1.54l2.26,0.76l0.25,-0.56l1.42,1.39l2.05,-0.53l1.8,-1.41l0,0l-0.02,2.34l1.21,2.3l-1.08,2.62l1.54,1.57l-0.2,0.6l1.04,0.49l-0.35,1.04l-0.78,0.53l0.18,0.91l-1.62,0.11l-1.96,2.58l-2.16,-0.07l0.8,2.21l-0.42,2.43l0.85,0.98l0.47,2.25l-2.8,0.94l-0.2,-1.74l-2.02,-0.77l-0.44,2.6l-1.45,1.09l-0.32,2.73l0.84,4.22l2.03,0.54l0.87,0.98l0,0l-0.15,3.13l-2.31,-1.96l-1.33,1.39l-1.75,-0.53l-0.96,1.19l-1.84,0.45l-0.98,-1.22l-1.95,1.17l-1.55,-0.83l-0.33,-1.44l-0.88,-0.21l-0.85,-1.77l-1.2,0.93l-0.62,-0.49l0.55,-1.12l-1.35,-0.36l0.88,-0.52l0.12,-0.96l-1.22,0.38l-0.52,-1.02l-1.95,-0.48l-0.22,-0.96l-1.35,0.07l-0.45,0.97l-1.43,-0.27l-1.37,-0.72l-0.07,-1.73l-1.16,-0.44l-1.33,1.43l-3.43,0.78l-4.46,-1.25l0,0l-4.4,-3.69l0.62,-2.69l-2.54,-0.63l-0.34,-1.65l-1.04,-0.83l-0.66,0.66l-0.68,-0.34l-1.12,-0.93l-0.1,-1.05l0,0l-0.27,-0.78l0.65,-0.65l2.15,0.94l2.02,-4.13l1.07,-0.12l0.17,-1.82l2.38,-1.26l-0.26,-4.72l2.74,2.25l0.71,1.47l1.08,-0.78l1.2,-2.83l2.47,-0.24l0.26,-1.45l1.15,-0.29l0.62,-2.66l1.13,-1.19z" id="soria">
   <title>Soria</title>
  </path>
  <path d="m230.91,17.21l-0.18,1.96l1.91,0.72l0.21,1.41l0,0l-1.66,0.39l-0.36,1.68l-2.01,1.45l-0.22,-0.76l-0.44,0.99l-1.05,-0.68l-0.13,3.06l0.56,0.61l-3.7,2.94l-0.48,3.52l-1.75,0.36l-1.05,1.38l-1.58,0.18l-0.9,-0.62l-1.24,2.27l0,0l-1.19,-0.28l-0.39,-0.99l-1.61,-1l-5.54,-0.98l-0.22,0.97l-1.18,-0.59l-0.67,-0.75l0.19,-1.13l1.44,-0.44l0.76,-1.03l-0.67,-1.83l0,0l1.4,-0.35l-0.27,-2.72l0.77,-0.42l-0.4,-2.05l1.88,-0.98l0.56,-1.02l-0.57,-1.33l0.75,-0.91l0,0l1.81,1.01l2.12,0.1l1.71,-0.69l1.56,1l1.55,-0.13l6.13,-1.88l4.15,-2.44z" id="gipuzkoa">
   <title>Gipuzkoa</title>
  </path>
  <path d="m236.28,118.28l1.82,0.17l1.62,-1l0.99,0.62l0.8,-1.12l-0.91,-1.56l2.01,-0.81l0.18,-1.27l1.51,-0.9l0.05,1.26l2.05,0.35l1.05,-1.16l-0.56,-1.05l0.52,-0.78l1.37,-0.66l1.1,0.61l1.61,-0.45l0.52,-1.33l2.01,1.34l1.18,0.02l0.87,-0.78l-0.8,2.36l1.26,0.76l1.38,-0.67l0.89,-2.26l0.72,1.65l0.96,0.47l1.23,-0.47l0.83,-2.5l2.07,2.33l2.58,-3.23l-1.82,-1.83l1.35,-0.46l-0.14,-2.59l0.75,-0.47l2.27,3.88l0.67,-0.42l-0.54,-2.03l-1.68,-1.35l0.44,-1.33l2.69,0.33l0.3,1.13l1.52,0.26l-0.25,0.72l0.7,0.88l2.11,1.26l0.59,-0.66l2.85,2.75l1.37,0.09l4.75,2.42l1.92,3.31l1.09,-1.33l2.25,0.66l2.29,-0.34l0,0l1.83,2.1l-0.65,0.23l1.06,1.76l-1.67,3.46l1.21,2.59l-1.49,2.16l-1.68,0.51l0.01,0.55l-0.5,-0.38l0.36,0.72l0,0l-3.01,0.74l-0.94,0.94l-0.81,-1.51l-2.47,0.05l-3.07,-2.47l-0.99,0.16l-0.83,1.23l-0.36,2.54l-2.18,1.27l-0.67,-0.83l-1.51,0.52l0.23,2.16l2.37,0.11l-0.27,3.82l0.9,1.7l-2.29,1.2l1.99,3.16l-1.78,1.01l-0.79,1.4l-0.73,-0.03l0.2,1.64l-1.37,0.84l-2.04,0.61l-1.52,-0.92l-1.05,4.54l-1.54,1.44l0.46,1.28l-2.13,1.03l-2.17,-0.09l-0.74,1.93l-1.84,0.86l-0.08,2.06l1.31,1.75l0,0l-2.02,1.34l-0.77,-0.19l-0.73,-0.8l0.3,-2.38l-0.55,-1.29l-0.35,0.33l-1.82,-1.03l-3.49,0.27l-0.51,0.57l-0.64,-0.44l0,0l-0.7,-1.53l0,0l2.49,-1.04l0.37,-0.97l-2.31,-2.13l-2.99,-0.09l0.02,-1.19l-1.23,-1.02l-0.43,-1.61l-0.76,1.07l0.2,1.41l-1.25,0.83l-2.81,-0.66l0,0l0.3,-2.06l-1.09,0.47l-1.12,-0.74l-0.9,0.51l-4.6,-4.76l-0.89,1.31l-0.3,-1.05l0.96,-0.72l-3.33,-3.09l0,0l1.77,-2.6l1.72,-0.96l-0.29,-2.06l0.73,-2.13l2.44,1.17l1.63,-1.34l-0.59,-0.78l0.9,-2.92l-0.81,-2.12l0.68,-0.85l-0.08,-2.04l-2.39,-2.75l0.09,-2.6z" id="teruel">
   <title>Teruel</title>
  </path>
  <path d="m25.71,440.57l1.07,0.28l0.77,1.52l-1.91,2.86l-1.07,0.3l-0.9,3.18l-2.94,-2.09l-4.42,-0.84l1.04,-2.21l2.15,0.69l1.83,-0.36l1.89,-1.42l-0.3,-0.97l2.8,-0.94l-0.01,0zm27.07,-14.24l0.59,0.67l1.97,0.03l3.8,2.76l0.16,1.29l-4.04,2.76l-2.92,-0.03l-3.19,-2.83l1.11,-3.98l2.52,-0.67zm44.6,-14.4l1.32,0.67l0.04,1.53l-4.47,1.81l-0.75,1.35l-4.29,2.76l-0.08,2.89l-2.53,3.94l-0.13,2.23l-4.79,4.7l-6.31,0.81l-1.43,-3.18l-4.08,-4.7l-0.12,-2.23l-3.34,-3.51l3.63,-1.47l3.31,0.87l3.08,-1.19l2.89,0.28l3.67,-0.97l2.3,-1.55l1.85,-2.65l3.09,-1.15l0.21,-0.77l4.36,0.44l2.59,-0.91l-0.02,0zm-71.35,-10.49l2.56,0.97l3.23,-0.21l2.16,3.72l-1.79,2.57l0.75,2.07l-0.41,2.15l-3.23,4.52l-1.15,-0.76l-0.49,-2.63l-1.9,-2.18l-2.23,-5.18l-1.12,-0.77l0.11,-1.32l3.51,-2.95z" id="santa-cruz" transform="rotate(0.323753 57.5232 425.079)">
   <title>Santa Cruz de Tenerife</title>
  </path>
  <path d="m145.4,147.51l1.32,0.71l3.02,-1.52l0.06,-0.87l1.58,-1.19l0.09,-1.17l0.74,0.34l0.27,2.93l0.82,0.46l1.54,-0.32l0.78,-1.63l1.29,0.19l0.38,-1.12l1.45,1.31l0.02,0.77l1.21,0.13l1.01,-0.92l1.46,0.63l0.96,1.58l1.21,-0.11l0.11,0.93l0.56,-0.59l1.68,0.51l1.27,1.19l0.89,-0.64l1.87,1.79l0.75,-0.61l0.91,0.61l0.74,-0.44l1.85,1.39l-0.43,2.11l-3.86,3l0.62,0.57l-1.08,-0.17l0.18,0.83l-0.45,0.04l0.16,-0.69l-0.68,0.79l-1.16,-0.01l-0.21,0.66l-0.23,-0.48l-1.13,0.54l0.2,0.96l2.01,0.8l1.81,-2.23l3.38,-1.02l-0.1,-0.9l1.49,-0.99l2.14,-0.3l0.39,-1.09l3.47,0.51l0.52,-1.59l1.31,-0.25l1.77,1.36l2.2,-0.46l0.92,-1.27l0.42,1.03l0,0l0.58,3.2l1.41,-0.08l-0.02,2.13l-0.92,2.34l1.56,0.76l2.41,5.44l2.75,3.04l-0.71,6.77l0,0l-0.78,0.96l-1.31,0.22l-0.71,-0.6l-1.44,0.26l-2.27,-1.79l-1.26,0.3l-0.02,0.55l-3.35,0.13l-0.66,1.47l0.21,1.37l-3.11,-0.22l-1.85,1.28l-0.19,1.15l-1.71,1.54l-4.53,0.23l-1.3,1.14l-2.16,-0.9l-1.98,1.33l-3.31,-1.56l-0.21,-2.14l-3.11,-0.52l-0.95,0.96l-0.49,-0.85l-0.85,-0.01l0.92,-3.72l1.54,0l0.25,-2.57l0.91,-0.01l-0.36,-2.11l-2.54,0.46l-1.05,-0.52l-1.05,3.23l-1.5,0.69l-4.15,-0.72l-2.04,-1.07l-0.55,1.76l-1.52,-1.72l0.89,-0.66l-1.33,-0.9l-0.17,1.18l-0.36,-0.49l-0.56,0.41l-0.21,1.44l-1.55,0.5l0.01,1.2l-2.14,0.16l0,0l0,0l0,0l-2.07,1.37l0,0l0.12,-3.39l-3.43,-2.17l-1.38,2.47l-1,3.91l0,0l-0.36,0l0,0l-7.8,-8.01l1.38,-1.82l0.73,-2.85l-1.1,-1.43l0.47,-0.35l-0.26,-1.6l-1.2,0.09l-1.48,1.79l-1.68,-0.31l-0.11,-2.54l0.87,-1.58l-1.3,-1.12l-2.44,0.57l1.26,-4.23l-0.12,-4.64l1.01,-0.63l0,0l3.78,0.36l0.33,0.96l0.93,-0.08l3.12,-2.56l1.58,-0.41l0.16,1.92l1.8,-0.4l-0.05,-0.49l0.95,-0.11l0.02,-1.35l3.59,-2.62l0.11,-1.59l1.32,0.57l1.93,-0.86l0.35,2.86l1.01,0.51l2.3,-0.77z" id="toledo">
   <title>Toldedo</title>
  </path>
  <path d="m328.65,92.6l1.89,0.24l-0.72,0.55l0.54,0.76l-1.22,0.09l-0.38,0.9l2.71,1.55l-0.49,1.26l0.82,0.34l-0.62,0.25l0.46,1.14l-0.52,0.85l1.11,-0.56l0.85,0.37l1.26,0.93l-0.59,0.79l1.11,1.38l-0.21,0.63l1.49,-0.08l-0.52,1.72l-1.52,-0.29l0.35,0.96l1.22,0.57l0.6,-0.49l0.13,1.61l0,0l-5.51,1.21l-1.96,1.38l-3.1,0.12l-2.65,1.04l-1.29,1.98l-1.51,-0.82l-4.29,1.45l-8.71,9.59l1.04,1.37l1.14,0.17l0.37,-0.34l-1.73,-0.72l1.4,-0.06l1.8,2.34l1.35,0.07l-0.15,1.45l-3.46,2.26l-2.65,3.2l-1.59,0.26l-0.69,-0.91l3.37,-0.82l1.18,-1.58l-4.4,0.57l-2.63,3.99l0,0l-2.37,-0.97l0.18,-1.25l-1.29,-0.97l0,0l-3.78,-1.11l0,0l-0.32,-1.19l0.72,-1.17l-1.71,-0.55l-0.3,-1.25l-1.7,0.01l0,0l-0.35,-0.72l0.5,0.38l0,-0.56l1.68,-0.5l1.48,-2.16l-1.2,-2.58l1.67,-3.46l-1.06,-1.76l0.64,-0.24l-1.83,-2.09l0,0l-0.59,-0.54l0,-1.71l1.43,-0.14l0.16,-0.81l1.54,-0.58l0.59,-2.47l1.81,-0.45l0.13,-1.72l0,0l1.46,0.11l0.05,-1.81l0.81,-0.58l1.29,1.84l0.67,-0.02l0.9,-1.48l1.3,1.35l0.96,0.1l3.79,-1.09l0.3,-0.65l1.79,0.2l0.78,-1.35l0.57,0.97l3.1,-0.71l0.53,-1.49l1.39,-0.72l1.48,-2.04l-1.16,-0.82l0.07,-0.86l2.22,1.39l2.11,-0.86l-0.5,-1.89l1.42,-0.58l0.28,-0.86l5.63,0.47l-0.35,-0.73z" id="tarragona">
   <title>Tarragona</title>
  </path>
  <path d="m250.85,157.32l0.63,0.44l0.51,-0.56l3.49,-0.27l1.82,1.03l0.35,-0.33l0.55,1.3l-0.3,2.37l0.74,0.81l0.77,0.19l2.02,-1.34l0,0l2.06,2.63l1.21,-1.49l1.07,0.66l0.12,3.26l0.66,0.31l1.31,0.19l0.34,-1.25l1.43,-0.91l2.28,3.23l1.89,-1.81l0.52,-1.58l1.52,-0.06l2.06,2.28l2.22,0.87l0,0l-0.78,2.99l-1.1,0.84l-2.04,4.05l-0.55,3.96l1.28,4.62l2.35,4.72l-0.74,0.49l0.1,1.83l1.52,3.61l4.6,5.92l0,0l0.11,1.12l-1.12,-1.12l-2.38,1.07l-0.39,-1.14l-2.14,1.33l-2.46,-1.1l-2.19,1.84l-0.61,-0.21l-2.22,1.41l-3.24,0.12l-0.49,0.41l0.37,0.86l0.75,0.57l0.87,-0.52l0.75,0.95l-3.4,2.21l-0.78,-1.61l-1.96,-0.24l-0.85,-1l-3.06,1.06l-0.83,-1.51l-1.3,0.15l-0.76,-0.66l0,0l0.14,-4.23l-1.07,-2.08l-5.75,0.6l-3.69,-4.78l0.34,-2.17l2.3,-4.16l0.49,-3.9l-4.52,-1.29l-0.73,0.36l-2.39,-1.83l-1.26,0.76l0.07,-1.49l-0.63,0.3l-0.33,-1.25l-0.65,0.19l0,0l0.27,-0.43l-0.75,-0.11l0.51,-5.24l1.3,-0.5l1.35,-3.11l1.52,-1.38l1.71,0.76l1.02,-0.29l0.54,-0.83l-0.41,-1.51l1.85,-2.85l0.46,-2.02l-0.25,-3.36l1.98,-1.15zm-9.4,-6.93l2.82,0.66l1.24,-0.83l-0.2,-1.41l0.76,-1.07l0.43,1.61l1.23,1.02l-0.02,1.19l3,0.09l2.31,2.13l-0.37,0.97l-2.48,1.04l0,0l-2.54,0.6l-3.95,-0.85l-1.33,-3.08l0.39,-0.31l-1.49,-1.18l0.2,-0.58z" id="valencia">
   <title>Valencia</title>
  </path>
  <path d="m116.5,71.18l1.23,1.84l1.82,0.9l0,0l-0.79,0.7l0.5,0.46l-0.22,1.44l-1.43,-0.71l0.37,-1.19l-1.48,-3.44zm5.33,-6.69l0.57,-0.62l0.82,0.2l-0.05,0.71l0,0l-1.04,0.87l-0.3,-1.16zm-0.9,8.98l-0.36,-7.42l0.82,-0.15l1.65,1.07l0.63,-1.27l0.65,0.79l0.74,-0.15l0.42,-0.63l-0.8,-0.41l0.54,-1.39l1.65,0.38l2.17,-1.97l1.76,2.25l0.51,-1.64l1.11,0.33l0,0l-0.76,5.58l3.05,0.15l0.72,2.96l-1.4,1.13l0.42,1.36l-0.91,0.45l-1.21,2.46l0.66,1.53l1.05,-0.98l0.66,0.77l1.81,-0.69l2.45,4.67l3.67,-3.38l3.18,3.61l0.52,-0.76l1.14,0.32l1.19,-0.81l0.37,0.93l-0.8,0.01l-0.42,2l1.44,0.5l1.92,-1.15l2.27,0.98l2.51,-2.07l0.64,0.59l2.82,-0.32l0.73,1.35l1.8,0.25l0,0l-1.09,1.73l1.54,1.38l-0.28,2.94l0.9,0.05l0.78,1.47l0,0l-0.59,2.75l-2.01,0.87l-6.01,1.8l-0.28,-0.44l-2.83,0.46l-0.08,0.57l-1.66,-0.16l-1.51,1.09l-1.43,0.14l0.94,1.75l-0.63,0.8l1.13,2.09l-1.87,-1.03l-0.95,0.77l-1.14,-0.75l0.71,1.85l-2.36,2.19l0.71,2.06l-1.62,-0.61l-1.27,1.48l0,0l-1.97,0.23l-0.84,0.58l-0.04,1.05l-1.49,0.38l-3.87,-2.71l-4.15,1.17l0,0l-1.68,-1.43l-1.18,0.31l-0.74,-1.52l-1.41,0.06l-0.01,0.55l0,0l-1.31,0.14l-0.27,-0.63l1.43,-1.31l0.06,-1.75l-1.32,-4.13l0.83,-1.77l-0.97,-0.47l0.44,-1.21l-0.61,-0.98l3.56,-2.01l-1.97,-1.88l0.69,-1.09l-1.79,-0.6l0.02,-2.69l-0.92,-0.73l-0.11,-1.19l-0.41,0.37l-0.5,-1.67l3.43,-2.17l-0.23,-0.58l-1.3,-0.14l1.1,-3.65l-1.27,-0.72l2.47,-1.82l-0.8,0.12l-2.98,-2.59z" id="valladolid">
   <title>Valladolid</title>
  </path>
  <path d="m189.51,26.95l0.92,0.76l1.12,-0.12l1.47,-0.63l0.32,-1.74l0.3,0.26l0.82,-0.22l1.36,2.75l-1.14,1.71l2.42,2.05l0.93,-0.23l2.89,1.05l4.18,0.29l-0.86,-2.27l3.53,-0.58l0,0l0.67,1.83l-0.76,1.03l-1.44,0.44l-0.19,1.13l0.67,0.75l1.18,0.59l0.22,-0.97l5.54,0.98l1.61,1l0.39,0.99l1.19,0.28l0,0l0.56,2.17l-1.48,2.45l0.57,1.54l-1.67,0.37l-0.21,0.64l1.08,2.87l-2.87,0.86l0.18,-0.68l-1.21,-0.5l-2.06,2.1l-0.52,-0.18l0.29,1.29l0.87,-0.08l0.27,0.84l0.99,-1.66l0.75,0.33l0.14,3.41l-0.92,0.22l0.04,0.93l0,0l-2.89,-0.03l0.15,-1.24l-0.62,1.5l-1.16,-0.42l-0.9,0.88l-0.26,-1.27l-1.3,0.84l-0.86,-1.76l-0.91,0.37l0.77,-3.23l-2.55,-1.18l-0.43,1.7l-1.45,1.12l-0.48,-1.11l0.64,-1.37l-0.67,0.25l-0.5,-1.23l0,0l-1.16,-0.7l-0.2,-1.6l-0.86,-0.61l-1.54,0.18l-1.09,-1.53l-0.75,0.08l-0.27,-1.13l-3.01,0.37l0.76,-1.36l-1.1,-0.64l1.41,-2.35l-0.05,-1.18l-1.4,1.37l-0.92,-0.55l-0.97,1.29l0.51,0.47l-2.37,-2.01l1.78,-3.1l2.46,0.63l-0.15,0.73l1.84,0.77l2.17,-0.4l1.15,-1.26l-1.81,-1.28l-0.6,-1.42l-3.61,-0.77l1.1,-0.33l0.05,-1.56l-0.55,-0.29l0.74,-0.97l-1.47,-0.99l1.19,-1.73zm9.65,15.76l2.92,-0.42l2.7,1.24l1.27,-0.25l0.4,0.85l0.95,-0.52l-1.55,2.78l0.96,1.15l1.71,-0.66l0.14,1.57l-3.6,-0.06l-0.75,-1.02l-3.34,0.27l-0.51,-1.37l-2.58,-1.7l1.01,-2.35l0,0l0.27,0.49z" id="alava">
   <title>Álava</title>
  </path>
  <path d="m258.26,44.44l-0.66,1.75l1.3,0.52l-0.4,1.08l-1.06,0.25l0.7,2.3l-0.9,1.17l0.48,0.72l0.59,-0.19l0.08,0.83l-1.13,1.41l1.25,-0.16l0.46,2l-0.85,1.04l2.77,1.72l-0.89,0.44l-2.26,5.33l0.88,0.61l0.38,-1.69l1.96,0.71l1.25,-3.35l-0.17,-1.9l1.27,0.89l0.23,2.98l-0.93,1.41l0.36,4.45l-0.47,3.62l-0.98,0.53l-0.31,-1.7l-2.46,3.82l3.28,1.9l3.69,0l0.85,1.85l1.08,0.55l-0.26,0.67l1.48,0.47l1.18,1.42l0.49,3.09l-0.57,1.31l0.92,-0.1l3.53,1.79l0.37,2.06l1.53,0.56l2.04,2.06l1.23,-1.17l1.52,0.5l-0.01,2.24l1.59,2.03l0.99,4.42l0.71,0.68l1.27,0.51l-0.49,-2l1.04,1.49l2.56,0.42l2.19,-2.31l0.5,0.5l1.17,-0.37l0.8,-1.02l2.76,0.83l0,0l-0.46,0.55l1.65,1.81l-0.78,0.84l1.14,2.07l0,0l-0.13,1.72l-1.81,0.46l-0.58,2.47l-1.55,0.58l-0.16,0.81l-1.43,0.14l0,1.71l0.59,0.53l0,0l-2.29,0.34l-2.25,-0.66l-1.09,1.33l-1.92,-3.31l-4.75,-2.42l-1.37,-0.09l-2.85,-2.75l-0.59,0.66l-2.11,-1.26l-0.7,-0.88l0.25,-0.72l-1.52,-0.26l-0.3,-1.13l-2.69,-0.33l-0.44,1.33l1.68,1.35l0.54,2.03l-0.67,0.42l-2.27,-3.88l-0.75,0.47l0.14,2.59l-1.35,0.46l1.82,1.83l-2.58,3.23l-2.07,-2.33l-0.83,2.5l-1.23,0.47l-0.96,-0.47l-0.72,-1.65l-0.89,2.26l-1.38,0.67l-1.26,-0.76l0.8,-2.36l-0.87,0.78l-1.18,-0.02l-2.01,-1.34l-0.52,1.33l-1.61,0.45l-1.1,-0.61l-1.37,0.66l-0.52,0.78l0.56,1.05l-1.05,1.16l-2.05,-0.35l-0.05,-1.26l-1.51,0.9l-0.18,1.27l-2.01,0.81l0.91,1.56l-0.8,1.12l-0.99,-0.62l-1.62,1l-1.82,-0.17l0,0l-5.68,-5.9l-3.99,-2l-0.82,-1.38l-2.84,1.04l0,0l-0.87,-0.98l-2.03,-0.54l-0.84,-4.22l0.32,-2.73l1.45,-1.09l0.44,-2.6l2.02,0.77l0.2,1.74l2.8,-0.94l-0.47,-2.25l-0.85,-0.98l0.42,-2.43l-0.8,-2.21l2.16,0.07l1.96,-2.58l1.62,-0.11l-0.18,-0.91l0.78,-0.53l0.35,-1.04l-1.04,-0.49l0.2,-0.6l-1.54,-1.57l1.08,-2.62l-1.21,-2.3l0.02,-2.34l0,0l0.29,-1.71l0,0l0.41,0.53l2.05,-0.03l1.59,1.6l1.87,-0.35l2.94,2.12l4.53,-0.21l3.25,-5.1l-0.18,-1.21l-1.28,-0.03l-1.43,-2.19l0.22,-2.2l-0.79,-1.33l0.57,-3.28l2.14,-2.65l-0.94,-0.95l0.56,-1.89l2.11,-2.42l-0.47,-1.68l0.72,-1.41l1.18,0.61l0.72,-0.31l0.03,-1.19l1.34,-0.88l-0.67,-0.35l0.68,-0.11l0.16,-1.54l3.05,0.22l0.77,-2.4l1.81,-0.15l1.41,-1.68l0.68,0.05z" id="zaragoza">
   <title>Zaragoza</title>
  </path>
  <path d="m77.73,64.73l2.47,1.82l2,-0.32l0.78,0.58l2.67,-0.01l0.88,0.88l2.13,-0.82l3.54,-0.19l0.58,1.18l2.5,1.23l1.6,-0.73l4.03,0.34l2.31,1.4l0.17,-0.75l1.12,0.05l0.43,-0.64l1.62,1.87l2.29,-1.04l0.82,0.93l2.04,-0.28l-0.31,-0.74l0.6,-0.16l1.47,1.53l-0.45,0.97l1.4,0.17l0.06,1.09l1.04,-0.53l0.29,-1.47l0.69,0.09l0,0l1.47,3.44l-0.37,1.2l1.43,0.7l0.22,-1.44l-0.5,-0.46l0.79,-0.7l0,0l1.39,-0.45l0,0l2.94,2.58l0.79,-0.11l-2.47,1.81l1.28,0.72l-1.1,3.65l1.3,0.14l0.23,0.58l-3.43,2.17l0.5,1.67l0.41,-0.37l0.11,1.2l0.92,0.73l-0.02,2.69l1.79,0.61l-0.69,1.09l1.97,1.88l-3.56,2.01l0.61,0.97l-0.44,1.21l0.97,0.47l-0.83,1.77l1.32,4.13l-0.06,1.75l-1.43,1.31l0.27,0.63l1.31,-0.14l0,0l-0.28,2.28l-0.95,0.35l-0.86,-0.96l-1.33,-0.19l-0.23,-1.63l-2.12,0.3l-0.23,1.33l-0.03,-1.36l-2.45,-1.55l-0.7,0.6l-1.24,-0.49l-0.88,-1.27l-3.32,1.21l-4.07,-0.92l-0.72,0.83l0.25,1.62l-1.23,1.55l-0.8,-1.4l-1.31,0.78l0.4,-1.83l-1.63,-0.84l-2.22,1.25l-5.62,-3.28l-4.98,-0.94l0,0l1.29,-0.46l0.69,-1.73l1.09,-0.34l-0.27,-1.19l2.19,-0.04l-0.5,-0.97l1.18,-1.02l-0.32,-0.59l3.57,-5.11l-0.24,-0.6l-2.64,-2.57l-1.84,-0.86l-3.13,-0.46l-1.64,1.13l-1.53,-1.17l-0.64,-2.37l1.64,-5.25l-1.71,-0.49l0.76,-2.3l-1.17,-1.1l-1.13,1.09l-2.41,0.26l-1.55,-0.42l-0.56,-1.66l-1.31,-0.35l-0.58,2.01l-3.41,-0.01l-0.5,-1.03l-0.79,-0.17l0,0l0.69,-2.23l-0.42,-1.15l-1.16,0.1l-0.64,-0.89l0.93,-0.39l0.41,-1.54l1.03,-0.34l0.39,-1.77l1.3,-0.71l0.44,-1.02l1.33,-0.58l1.73,0.52l-0.49,-0.95l0.58,-0.61z" id="zamora">
   <title>Zamora</title>
  </path>
 </g></svg>